<?xml version="1.0" encoding="utf-8"?>
<!-- Generator: Adobe Illustrator 19.2.1, SVG Export Plug-In . SVG Version: 6.00 Build 0)  -->
<svg version="1.1" id="Layer_1" xmlns="http://www.w3.org/2000/svg" xmlns:xlink="http://www.w3.org/1999/xlink" x="0px" y="0px"
	 viewBox="0 0 16 16" style="enable-background:new 0 0 16 16;" xml:space="preserve">
<style type="text/css">
	.st0{fill:#289BC8;}
</style>
<path class="st0" d="M9.4,8l3.5-3.5c0.4-0.4,0.4-1,0-1.4s-1-0.4-1.4,0L8,6.6L4.5,3.1c-0.4-0.4-1-0.4-1.4,0s-0.4,1,0,1.4L6.6,8
	l-3.5,3.5c-0.4,0.4-0.4,1,0,1.4s1,0.4,1.4,0L8,9.4l3.5,3.5c0.4,0.4,1,0.4,1.4,0s0.4-1,0-1.4L9.4,8z"/>
</svg>
