<?xml version="1.0" encoding="utf-8"?>
<!-- Generator: Adobe Illustrator 19.1.0, SVG Export Plug-In . SVG Version: 6.00 Build 0)  -->
<svg version="1.1" id="Layer_1" xmlns="http://www.w3.org/2000/svg" xmlns:xlink="http://www.w3.org/1999/xlink" x="0px" y="0px"
	 viewBox="0 0 24 24" style="enable-background:new 0 0 24 24;" xml:space="preserve">
<style type="text/css">
	.st0{fill:#D2D7D9;}
</style>
<g>
	<g>
		<g>
			<g>
				<path class="st0" d="M12,0C5.4,0,0,5.4,0,12c0,2.6,0.9,5.1,2.3,7c2.2,3,5.7,5,9.7,5c4,0,7.5-2,9.7-5c1.4-2,2.3-4.4,2.3-7
					C24,5.4,18.6,0,12,0z M20.2,17.7c-2.2-1.6-5-2.6-8.2-2.6s-6,1-8.2,2.6C2.7,16.1,2,14.1,2,11.9c0-5.5,4.5-10,10-10
					c5.5,0,10,4.5,10,10C22,14.1,21.3,16.1,20.2,17.7z"/>
			</g>
		</g>
	</g>
	<circle class="st0" cx="12" cy="9.5" r="4"/>
</g>
</svg>
