<?xml version="1.0" encoding="utf-8"?>
<!-- Generator: Adobe Illustrator 19.2.1, SVG Export Plug-In . SVG Version: 6.00 Build 0)  -->
<svg version="1.1" id="Layer_1" xmlns="http://www.w3.org/2000/svg" xmlns:xlink="http://www.w3.org/1999/xlink" x="0px" y="0px"
	 viewBox="0 0 16 16" style="enable-background:new 0 0 16 16;" xml:space="preserve">
<style type="text/css">
	.st0{opacity:0.5;fill:#414B55;}
</style>
<path class="st0" d="M14.7,13.3L14.7,13.3l-2.8-2.8c1.7-2.3,1.5-5.6-0.6-7.7C9,0.5,5.2,0.5,2.8,2.8c-2.3,2.3-2.3,6.1,0,8.5
	c2.1,2.1,5.4,2.3,7.7,0.6l2.8,2.8l0,0c0.4,0.4,1,0.4,1.4,0C15.1,14.3,15.1,13.7,14.7,13.3z M4.2,9.8c-1.6-1.6-1.6-4.1,0-5.7
	s4.1-1.6,5.7,0s1.6,4.1,0,5.7S5.7,11.4,4.2,9.8z"/>
</svg>
