<svg xmlns="http://www.w3.org/2000/svg" viewBox="0 0 24 24">
    <circle fill="#F55F69"  cx="12" cy="12" r="8"/>
	  <path id="error-b" transform="translate(10 7)" fill="#FFF" d="M0.816191035,1.48603005 C0.771317523,0.935571319 1.18850298,0.432287813 1.95012293,0.405700684 C2.71174289,0.379113555 3.14371349,0.852494618 3.14371349,1.40477937 C3.14371349,1.43528248 3.14231783,1.46576961 3.13953089,1.49614514 L2.69708849,6.3184308 C2.66166453,6.70452504 2.33783884,7 1.95012293,7 C1.56344486,7 1.24149833,6.70323064 1.21008047,6.31783103 L0.816191035,1.48603005 Z M2,8 C2.55228475,8 3,8.44771525 3,9 C3,9.55228475 2.55228475,10 2,10 C1.44771525,10 1,9.55228475 1,9 C1,8.44771525 1.44771525,8 2,8 Z"/>
</svg>
