<svg xmlns="http://www.w3.org/2000/svg" viewBox="0 0 24 24">
    <path opacity="0.5" fill="#414B55" d="M17.0845,15.4292 L20.6575,19.0022 C21.1145,19.4592 21.1145,20.2002 20.6575,20.6572 C20.2005,21.1142 19.4595,21.1142 19.0015,20.6572 L15.4295,17.0842 C14.1345,18.0392 12.5345,18.6042 10.8015,18.6042 C6.4935,18.6042 3.0005,15.1112 3.0005,10.8022 C3.0005,6.4932 6.4935,3.0002 10.8015,3.0002 C15.1105,3.0002 18.6045,6.4932 18.6045,10.8022 C18.6045,12.5342 18.0395,14.1352 17.0845,15.4292 M10.8015,16.2632 C13.8185,16.2632 16.2635,13.8182 16.2635,10.8022 C16.2635,7.7852 13.8185,5.3412 10.8015,5.3412 C7.7855,5.3412 5.3405,7.7852 5.3405,10.8022 C5.3405,13.8182 7.7855,16.2632 10.8015,16.2632"/>
</svg>
