<svg viewBox="0 0 16 17" xmlns="http://www.w3.org/2000/svg">
    <path d="M3.974,9.248 C3.043,8.249 2.5,6.921 2.5,5.5 C2.5,2.462 4.962,0 8,0 C11.037,0 13.5,2.462 13.5,5.5 C13.5,6.922 12.955,8.25 12.026,9.248 C14.119,10.67 15.5,13.169 15.5,16 C15.5,16.552 15.052,17 14.5,17 C13.948,17 13.5,16.552 13.5,16 C13.5,12.67 11.02,10 8,10 C4.979,10 2.5,12.67 2.5,16 C2.5,16.552 2.052,17 1.5,17 C0.948,17 0.5,16.552 0.5,16 C0.5,13.169 1.881,10.67 3.974,9.248 M5.916,8.312 C6.577,8.109 7.276,8 8,8 C8.724,8 9.423,8.109 10.084,8.312 C10.963,7.66 11.5,6.627 11.5,5.5 C11.5,3.567 9.933,2 8,2 C6.067,2 4.5,3.567 4.5,5.5 C4.5,6.626 5.035,7.659 5.916,8.312" id="path-1"></path>
</svg>
