<svg xmlns="http://www.w3.org/2000/svg" xmlns:xlink="http://www.w3.org/1999/xlink" viewBox="0 0 24 24">
    <path id="a" d="M4.02 2.952a2 2 0 0 0-1.39 1.367C2.21 5.747 2 7.304 2 8.994c0 1.702.214 3.271.639 4.713a2 2 0 0 0 1.38 1.361 24.53 24.53 0 0 0 6.643.932c2.17 0 4.275-.299 6.322-.896a2 2 0 0 0 1.358-1.352c.437-1.477.658-3.086.658-4.834 0-1.71-.21-3.258-.627-4.652a2 2 0 0 0-1.359-1.347A22.545 22.545 0 0 0 10.698 2c-2.137 0-4.362.316-6.679.952zm-.53-1.929C5.975.341 8.378 0 10.698 0c2.292 0 4.583.333 6.874.998a4 4 0 0 1 2.717 2.696C20.763 5.28 21 7.02 21 8.918c0 1.935-.247 3.736-.74 5.402a4 4 0 0 1-2.715 2.704c-2.23.65-4.525.976-6.883.976-2.394 0-4.789-.335-7.183-1.006A4 4 0 0 1 .72 14.272C.24 12.642 0 10.882 0 8.994c0-1.875.237-3.62.71-5.237a4 4 0 0 1 2.78-2.734zM6 8a1 1 0 1 1 0-2h5a1 1 0 0 1 0 2H6zm0 4a1 1 0 0 1 0-2h9a1 1 0 0 1 0 2H6z"/>
</svg>
