<svg viewBox="0 0 24 24" xmlns="http://www.w3.org/2000/svg">
    <path d="M7.974,13.248 C7.043,12.249 6.5,10.921 6.5,9.5 C6.5,6.462 8.962,4 12,4 C15.037,4 17.5,6.462 17.5,9.5 C17.5,10.922 16.955,12.25 16.026,13.248 C18.119,14.67 19.5,17.169 19.5,20 C19.5,20.552 19.052,21 18.5,21 C17.948,21 17.5,20.552 17.5,20 C17.5,16.67 15.02,14 12,14 C8.979,14 6.5,16.67 6.5,20 C6.5,20.552 6.052,21 5.5,21 C4.948,21 4.5,20.552 4.5,20 C4.5,17.169 5.881,14.67 7.974,13.248 M9.916,12.312 C10.577,12.109 11.276,12 12,12 C12.724,12 13.423,12.109 14.084,12.312 C14.963,11.66 15.5,10.627 15.5,9.5 C15.5,7.567 13.933,6 12,6 C10.067,6 8.5,7.567 8.5,9.5 C8.5,10.626 9.035,11.659 9.916,12.312" id="path-1"></path>
</svg>
