<svg viewBox="0 0 24 24" xmlns="http://www.w3.org/2000/svg">
    <path d="M12,20 C7.581722,20 4,16.418278 4,12 C4,7.581722 7.581722,4 12,4 C16.418278,4 20,7.581722 20,12 C20,16.418278 16.418278,20 12,20 Z" id="path-1"></path>
    <path fill="white" d="M13,11 L16,11 C16.5522847,11 17,11.4477153 17,12 C17,12.5522847 16.5522847,13 16,13 L13,13 L13,16 C13,16.5522847 12.5522847,17 12,17 C11.4477153,17 11,16.5522847 11,16 L11,13 L8,13 C7.44771525,13 7,12.5522847 7,12 C7,11.4477153 7.44771525,11 8,11 L11,11 L11,8 C11,7.44771525 11.4477153,7 12,7 C12.5522847,7 13,7.44771525 13,8 L13,11 Z" id="path-3"></path>
</svg>
