<svg version="1.1" xmlns="http://www.w3.org/2000/svg" viewBox="0 0 24 24">
    <path transform="translate(2 2)" d="M10.9997025,11.0002025 L14.2311805,11.0002025 C14.6561517,10.9994954 15.0005127,10.5518968 15.0012198,9.99964645 C15.0005127,9.44739605 14.6554446,8.99909035 14.2311805,8.99909035 L10.9997025,9.00050456 L10.9997025,5.76902657 C10.9989954,5.3440554 10.5513968,4.9996944 9.99914645,4.99898729 C9.44689605,4.9996944 8.99859035,5.34476251 8.99859035,5.76902657 L9.00000456,9.00050456 L5.76852657,9.00050456 C5.3435554,9.00121167 4.9991944,9.44881026 4.99848729,10.0010607 C4.9991944,10.5533111 5.34426251,11.0016168 5.76852657,11.0016168 L9.00000456,11.0002025 L8.99929746,14.2309734 C9.00000456,14.6559446 9.44760316,15.0003056 9.99985355,15.0010127 C10.5521039,15.0003056 11.0004096,14.6552375 11.0004096,14.2309734 L10.9997025,11.0002025 Z M10,20 C4.477,20 0,15.523 0,10 C0,4.477 4.477,0 10,0 C15.523,0 20,4.477 20,10 C20,15.523 15.523,20 10,20 Z" id="a"></path>
</svg>
