<svg viewBox="0 0 24 24" xmlns="http://www.w3.org/2000/svg">
    <path d="M12,20 C7.581722,20 4,16.418278 4,12 C4,7.581722 7.581722,4 12,4 C16.418278,4 20,7.581722 20,12 C20,16.418278 16.418278,20 12,20 Z" id="path-1"></path>
    <path fill="white" d="M10.816191,8.48603005 C10.7713175,7.93557132 11.188503,7.43228781 11.9501229,7.40570068 C12.7117429,7.37911355 13.1437135,7.85249462 13.1437135,8.40477937 C13.1437135,8.43528248 13.1423178,8.46576961 13.1395309,8.49614514 L12.6970885,13.3184308 C12.6616645,13.704525 12.3378388,14 11.9501229,14 C11.5634449,14 11.2414983,13.7032306 11.2100805,13.317831 L10.816191,8.48603005 Z M12,15 C12.5522847,15 13,15.4477153 13,16 C13,16.5522847 12.5522847,17 12,17 C11.4477153,17 11,16.5522847 11,16 C11,15.4477153 11.4477153,15 12,15 Z" id="path-3"></path>
</svg>
