<svg viewBox="0 0 24 24" xmlns="http://www.w3.org/2000/svg">
    <path d="M13,10.924043 L13,17 C13,17.5522847 12.5522847,18 12,18 C11.4477153,18 11,17.5522847 11,17 L11,10.9296694 L9.78765483,12.5897628 C9.4619378,13.035775 8.83632767,13.1332935 8.39031549,12.8075765 C7.94430331,12.4818595 7.84678483,11.8562493 8.17250185,11.4102372 L11.031092,7.4959008 C11.4219524,6.96068618 12.1726845,6.84366399 12.7078992,7.23452443 C12.8076487,7.30737024 12.8955535,7.39517981 12.9685075,7.49485028 L15.8337397,11.4093617 C16.1599402,11.8550204 16.0631002,12.4807359 15.6174415,12.8069364 C15.1717829,13.133137 14.5460673,13.036297 14.2198668,12.5906383 L13,10.924043 Z" id="path-1"></path>
</svg>
