<svg viewBox="0 0 24 24" xmlns="http://www.w3.org/2000/svg">
    <path d="M11.0268713,14.075957 L11.0268713,8 C11.0268713,7.44771525 11.4745866,7 12.0268713,7 C12.5791561,7 13.0268713,7.44771525 13.0268713,8 L13.0268713,14.0703306 L14.2392165,12.4102372 C14.5649335,11.964225 15.1905437,11.8667065 15.6365558,12.1924235 C16.082568,12.5181405 16.1800865,13.1437507 15.8543695,13.5897628 L12.9957794,17.5040992 C12.6049189,18.0393138 11.8541868,18.156336 11.3189722,17.7654756 C11.2192226,17.6926298 11.1313178,17.6048202 11.0583638,17.5051497 L8.19313161,13.5906383 C7.8669311,13.1449796 7.96377109,12.5192641 8.40942978,12.1930636 C8.85508847,11.866863 9.48080399,11.963703 9.8070045,12.4093617 L11.0268713,14.075957 Z" id="path-1"></path>
</svg>
