<svg width="18px" height="14px" viewBox="0 0 18 14" version="1.1" xmlns="http://www.w3.org/2000/svg" xmlns:xlink="http://www.w3.org/1999/xlink">
	<path d="M17.657,6.29218833 L11.77,0.301188335 C11.381,-0.0938116654 10.745,-0.101811665 10.349,0.286188335 C9.952,0.672188335 9.946,1.30518833 10.333,1.70018833 L14.56,6.00018833 L1.005,6.00018833 C0.45,6.00018833 1.42108547e-14,6.44818833 1.42108547e-14,7.00018833 C1.42108547e-14,7.55318833 0.45,8.00018833 1.005,8.00018833 L14.752,8.00018833 L10.349,12.2861883 C9.952,12.6711883 9.946,13.3051883 10.333,13.7001883 C10.53,13.9001883 10.79,14.0001883 11.052,14.0001883 C11.305,14.0001883 11.558,13.9061883 11.754,13.7151883 L17.637,7.99018833 C18.114,7.52818833 18.122,6.76718833 17.657,6.29218833" id="path-1"></path>
</svg>
