<svg width="24px" height="24px" viewBox="0 0 24 24" version="1.1" xmlns="http://www.w3.org/2000/svg" xmlns:xlink="http://www.w3.org/1999/xlink">
    <path d="M20.657,11.2921883 L14.77,5.30118833 C14.381,4.90618833 13.745,4.89818833 13.349,5.28618833 C12.952,5.67218833 12.946,6.30518833 13.333,6.70018833 L17.56,11.0001883 L4.005,11.0001883 C3.45,11.0001883 3,11.4481883 3,12.0001883 C3,12.5531883 3.45,13.0001883 4.005,13.0001883 L17.752,13.0001883 L13.349,17.2861883 C12.952,17.6711883 12.946,18.3051883 13.333,18.7001883 C13.53,18.9001883 13.79,19.0001883 14.052,19.0001883 C14.305,19.0001883 14.558,18.9061883 14.754,18.7151883 L20.637,12.9901883 C21.114,12.5281883 21.122,11.7671883 20.657,11.2921883" id="path-1"></path>
</svg>
