<svg width="14px" height="18px" viewBox="0 0 14 18" version="1.1" xmlns="http://www.w3.org/2000/svg" xmlns:xlink="http://www.w3.org/1999/xlink">
	<path d="M5.10004611,1.37362811 C3.28088167,2.12152019 2,3.91117712 2,6 C1.99631446,6.70857754 1.99631446,7.36388636 2,7.96592645 C2.00368554,8.56796653 1.67035221,9.57932438 1,11 L13,11 C12.3333333,9.56166792 12,8.55031006 12,7.96592645 L12,6 C12,3.91117712 10.7191183,2.12152019 8.89995389,1.37362811 C8.6370961,0.575856836 7.88579733,0 7,0 C6.11420267,0 5.3629039,0.575856836 5.10004611,1.37362811 Z M1,11 L13,11 C13.5522847,11 14,11.4477153 14,12 L14,13 C14,13.5522847 13.5522847,14 13,14 L1,14 C0.44771525,14 0,13.5522847 0,13 L0,12 C0,11.4477153 0.44771525,11 1,11 Z M7,16 L11,16 C10.9813381,17.7147073 10.6568542,18 9,18 C7.60618608,18 7,17.6479096 7,16 Z" id="path-1"></path>
</svg>
