<svg width="24px" height="24px" viewBox="0 0 24 24" version="1.1" xmlns="http://www.w3.org/2000/svg" xmlns:xlink="http://www.w3.org/1999/xlink">
    <path d="M10.1000461,4.37362811 C8.28088167,5.12152019 7,6.91117712 7,9 C6.99631446,9.70857754 6.99631446,10.3638864 7,10.9659264 C7.00368554,11.5679665 6.67035221,12.5793244 6,14 L18,14 C17.3333333,12.5616679 17,11.5503101 17,10.9659264 L17,9 C17,6.91117712 15.7191183,5.12152019 13.8999539,4.37362811 C13.6370961,3.57585684 12.8857973,3 12,3 C11.1142027,3 10.3629039,3.57585684 10.1000461,4.37362811 Z M6,14 L18,14 C18.5522847,14 19,14.4477153 19,15 L19,16 C19,16.5522847 18.5522847,17 18,17 L6,17 C5.44771525,17 5,16.5522847 5,16 L5,15 C5,14.4477153 5.44771525,14 6,14 Z M12,19 L16,19 C15.9813381,20.7147073 15.6568542,21 14,21 C12.6061861,21 12,20.6479096 12,19 Z" id="path-1"></path>
</svg>
