<svg viewBox="0 0 24 24" xmlns="http://www.w3.org/2000/svg">
    <path d="M5.01931678,5.95185833 C4.35029476,6.1355141 3.82423732,6.65276621 3.62931508,7.31858786 C3.21102255,8.74743351 3,10.3042072 3,11.9936194 C3,13.6956711 3.21419213,15.265274 3.63887186,16.7072818 C3.83351048,17.3681808 4.35460866,17.8823672 5.01805068,18.0681639 C7.23877096,18.6900836 9.45174573,19 11.6616255,19 C13.8310727,19 15.9367819,18.7013603 17.9844708,18.1038794 C18.6373513,17.91338 19.1486795,17.404159 19.3418731,16.7520677 C19.7793421,15.2754843 20,13.6656441 20,11.9176521 C20,10.2089014 19.7891569,8.6599212 19.3726954,7.26649479 C19.1781677,6.61563032 18.6665625,6.10800094 18.0142057,5.91855626 C15.9027287,5.30539535 13.7990584,5 11.6980633,5 C9.56135883,5 7.33604048,5.31588572 5.01931678,5.95185833 Z M4.48987567,4.023208 C6.97477326,3.34106933 9.37750246,3 11.6980633,3 C13.9897468,3 16.2810435,3.33263357 18.5719532,3.9979007 C19.8766773,4.3767931 20.8998842,5.39204589 21.2889398,6.69377558 C21.7629799,8.27985248 22,10.0211447 22,11.9176521 C22,13.8530446 21.7531608,15.6538939 21.2594825,17.3202 C20.873097,18.6243768 19.8504373,19.6428206 18.5446766,20.0238194 C16.3142964,20.6746065 14.019946,21 11.6616255,21 C9.26763388,21 6.87332404,20.6646885 4.47869595,19.9940654 C3.15181802,19.6224737 2.10961969,18.5940974 1.72034259,17.2722999 C1.2401142,15.6416756 1,13.8821154 1,11.9936194 C1,10.1188958 1.23662474,8.37324746 1.70987423,6.75667429 C2.0997217,5.42502083 3.15183081,4.39051977 4.48987567,4.023208 Z M7,11 C6.44771525,11 6,10.5522847 6,10 C6,9.44771525 6.44771525,9 7,9 L12,9 C12.5522847,9 13,9.44771525 13,10 C13,10.5522847 12.5522847,11 12,11 L7,11 Z M7,15 C6.44771525,15 6,14.5522847 6,14 C6,13.4477153 6.44771525,13 7,13 L16,13 C16.5522847,13 17,13.4477153 17,14 C17,14.5522847 16.5522847,15 16,15 L7,15 Z" id="path-1"></path>
</svg>
