<svg viewBox="0 0 21 18" xmlns="http://www.w3.org/2000/svg">
    <path d="M4.01931678,2.95185833 C3.35029476,3.1355141 2.82423732,3.65276621 2.62931508,4.31858786 C2.21102255,5.74743351 2,7.30420716 2,8.99361939 C2,10.6956711 2.21419213,12.265274 2.63887186,13.7072818 C2.83351048,14.3681808 3.35460866,14.8823672 4.01805068,15.0681639 C6.23877096,15.6900836 8.45174573,16 10.6616255,16 C12.8310727,16 14.9367819,15.7013603 16.9844708,15.1038794 C17.6373513,14.91338 18.1486795,14.404159 18.3418731,13.7520677 C18.7793421,12.2754843 19,10.6656441 19,8.91765213 C19,7.20890144 18.7891569,5.6599212 18.3726954,4.26649479 C18.1781677,3.61563032 17.6665625,3.10800094 17.0142057,2.91855626 C14.9027287,2.30539535 12.7990584,2 10.6980633,2 C8.56135883,2 6.33604048,2.31588572 4.01931678,2.95185833 Z M3.48987567,1.023208 C5.97477326,0.341069332 8.37750246,0 10.6980633,0 C12.9897468,0 15.2810435,0.332633566 17.5719532,0.997900699 C18.8766773,1.3767931 19.8998842,2.39204589 20.2889398,3.69377558 C20.7629799,5.27985248 21,7.02114467 21,8.91765213 C21,10.8530446 20.7531608,12.6538939 20.2594825,14.3202 C19.873097,15.6243768 18.8504373,16.6428206 17.5446766,17.0238194 C15.3142964,17.6746065 13.019946,18 10.6616255,18 C8.26763388,18 5.87332404,17.6646885 3.47869595,16.9940654 C2.15181802,16.6224737 1.10961969,15.5940974 0.720342587,14.2722999 C0.240114196,12.6416756 0,10.8821154 0,8.99361939 C0,7.11889582 0.236624745,5.37324746 0.709874235,3.75667429 C1.0997217,2.42502083 2.15183081,1.39051977 3.48987567,1.023208 Z M6,8 C5.44771525,8 5,7.55228475 5,7 C5,6.44771525 5.44771525,6 6,6 L11,6 C11.5522847,6 12,6.44771525 12,7 C12,7.55228475 11.5522847,8 11,8 L6,8 Z M6,12 C5.44771525,12 5,11.5522847 5,11 C5,10.4477153 5.44771525,10 6,10 L15,10 C15.5522847,10 16,10.4477153 16,11 C16,11.5522847 15.5522847,12 15,12 L6,12 Z" id="path-1"></path>
</svg>
