<svg xmlns="http://www.w3.org/2000/svg" viewBox="0 0 24 24">
    <path d="M17.0002,4 L17.8822,4 C19.0522,4 20.0002,4.896 20.0002,6 L20.0002,18 C20.0002,19.104 19.0522,20 17.8822,20 L6.1182,20 C4.9482,20 4.0002,19.104 4.0002,18 L4.0002,6 C4.0002,4.896 4.9482,4 6.1182,4 L7.0002,4 L7.0002,5 C7.0002,5.552 7.4482,6 8.0002,6 L9.0002,6 C9.5522,6 10.0002,5.552 10.0002,5 L10.0002,4 L14.0002,4 L14.0002,5 C14.0002,5.552 14.4482,6 15.0002,6 L16.0002,6 C16.5522,6 17.0002,5.552 17.0002,5 L17.0002,4 Z M6.0002,18 L18.0002,18 L18.0002,10 L6.0002,10 L6.0002,18 Z"/>
</svg>
