<svg width="16px" height="16px" viewBox="0 0 16 16" version="1.1" xmlns="http://www.w3.org/2000/svg" xmlns:xlink="http://www.w3.org/1999/xlink">
    <path d="M13.0002,0 L13.8822,0 C15.0522,0 16.0002,0.896 16.0002,2 L16.0002,14 C16.0002,15.104 15.0522,16 13.8822,16 L2.1182,16 C0.9482,16 0.0002,15.104 0.0002,14 L0.0002,2 C0.0002,0.896 0.9482,0 2.1182,0 L3.0002,0 L3.0002,1 C3.0002,1.552 3.4482,2 4.0002,2 L5.0002,2 C5.5522,2 6.0002,1.552 6.0002,1 L6.0002,0 L10.0002,0 L10.0002,1 C10.0002,1.552 10.4482,2 11.0002,2 L12.0002,2 C12.5522,2 13.0002,1.552 13.0002,1 L13.0002,0 Z M2.0002,14 L14.0002,14 L14.0002,6 L2.0002,6 L2.0002,14 Z" id="path-1"></path>
</svg>
