<svg width="14px" height="16px" viewBox="0 0 14 16" version="1.1" xmlns="http://www.w3.org/2000/svg" xmlns:xlink="http://www.w3.org/1999/xlink">
    <!-- Generator: Sketch 50.2 (55047) - http://www.bohemiancoding.com/sketch -->
    <desc>Created with Sketch.</desc>
    <defs>
        <path d="M11.1082,10.3564 C11.0052,10.9274 10.8462,11.2164 10.7142,11.3204 C10.2012,11.3364 9.5052,11.2134 8.0612,10.8904 C7.9212,10.8594 7.9212,10.8594 7.7812,10.8284 C7.3872,10.7414 7.0302,10.6684 6.7042,10.6074 C6.9212,9.7264 6.8692,8.6424 6.4972,7.5544 C6.1222,6.4594 5.4932,5.5664 4.7772,5.0074 C5.0172,4.7354 5.2782,4.4264 5.5702,4.0744 C5.6012,4.0374 5.6012,4.0374 5.6322,4.0004 C6.5942,2.8404 7.0882,2.2964 7.5192,1.9864 C7.7072,1.9994 8.0112,2.1384 8.4222,2.5054 C9.2122,3.2104 9.9772,4.4644 10.5532,6.1484 C11.1302,7.8354 11.2972,9.3074 11.1082,10.3564 M4.6942,10.4344 C4.3502,10.4604 4.0382,10.5264 3.7322,10.6354 L3.7262,10.6194 C3.3462,10.7514 2.5382,10.1994 2.1492,9.0624 C2.1012,8.9214 2.0642,8.7844 2.0362,8.6504 C2.0262,8.6044 2.0232,8.5614 2.0152,8.5164 C2.0012,8.4314 1.9852,8.3454 1.9782,8.2644 C1.9742,8.2124 1.9762,8.1664 1.9742,8.1164 C1.9722,8.0464 1.9672,7.9764 1.9702,7.9114 C1.9722,7.8614 1.9802,7.8184 1.9842,7.7724 C1.9912,7.7124 1.9952,7.6504 2.0052,7.5964 C2.0132,7.5524 2.0252,7.5144 2.0362,7.4734 C2.0482,7.4234 2.0592,7.3724 2.0752,7.3274 C2.0872,7.2904 2.1042,7.2604 2.1192,7.2274 C2.1362,7.1874 2.1532,7.1454 2.1732,7.1114 C2.1902,7.0834 2.2092,7.0624 2.2282,7.0374 C2.2492,7.0084 2.2702,6.9784 2.2932,6.9554 C2.3132,6.9364 2.3352,6.9254 2.3562,6.9104 C2.3832,6.8914 2.4102,6.8684 2.4402,6.8584 C2.7492,6.7504 3.0312,6.6074 3.3172,6.4074 L3.3202,6.4164 C3.4182,6.4664 3.5402,6.5484 3.6782,6.6734 C4.0632,7.0184 4.4092,7.5574 4.6292,8.2024 C4.9622,9.1734 4.8972,10.0514 4.6942,10.4344 M13.8372,5.0644 C13.4492,3.9294 12.4492,3.1814 11.3362,3.0664 C9.9432,0.6434 8.1592,-0.3676 6.7562,0.1184 L6.7612,0.1314 L6.7542,0.1194 C5.9692,0.5724 5.4242,1.1484 4.1162,2.7254 C4.0862,2.7624 4.0862,2.7624 4.0552,2.7984 C2.8852,4.2094 2.2872,4.8014 1.7972,4.9794 L1.7972,4.9774 C0.2502,5.5134 -0.4288,7.6324 0.2822,9.7104 C0.3712,9.9714 0.4782,10.2184 0.6002,10.4524 C0.6422,10.5324 0.6952,10.5994 0.7402,10.6764 C0.8272,10.8224 0.9102,10.9724 1.0082,11.1044 C1.0102,11.1064 1.0112,11.1094 1.0132,11.1124 L3.6632,15.5424 C3.6712,15.5564 3.6802,15.5704 3.6892,15.5834 C3.9782,16.0164 4.5612,16.1294 4.9912,15.8384 L5.1412,15.7364 C5.5302,15.4724 5.6812,14.9684 5.5012,14.5314 L4.6452,12.4474 C5.1692,12.3614 5.9842,12.4674 7.3582,12.7714 C7.4952,12.8014 7.4952,12.8014 7.6332,12.8324 C9.6392,13.2804 10.3792,13.3954 11.2742,13.2654 L11.2712,13.2464 C12.6532,12.7814 13.4232,10.9144 13.0712,8.2044 C13.8902,7.4244 14.2282,6.2074 13.8372,5.0644" id="path-1"></path>
    </defs>
    <g id="Symbols" stroke="none" stroke-width="1" fill="none" fill-rule="evenodd">
        <g id="Icon-/-Menu-/-Campaigns" transform="translate(-5.000000, -4.000000)">
            <g id="Shape-/-Fill" transform="translate(5.000000, 4.000000)">
                <mask id="mask-2" fill="white">
                    <use xlink:href="#path-1"></use>
                </mask>
                <use id="Mask" fill="#010202" xlink:href="#path-1"></use>
                <g id="Colors-/-Grey-/-swatch-D25" mask="url(#mask-2)" fill="#42566E">
                    <g transform="translate(-5.000000, -4.000000)">
                        <rect x="0" y="0" width="24" height="24"></rect>
                    </g>
                </g>
            </g>
        </g>
    </g>
</svg>
