<svg xmlns="http://www.w3.org/2000/svg" xmlns:xlink="http://www.w3.org/1999/xlink" viewBox="0 0 16 16">
    <path id="a" d="M11.108 10.356c-.103.571-.262.86-.394.964-.513.016-1.209-.107-2.653-.43l-.28-.062c-.394-.087-.75-.16-1.077-.22.217-.882.165-1.966-.207-3.054-.375-1.095-1.004-1.988-1.72-2.547.24-.272.501-.58.793-.933L5.632 4c.962-1.16 1.456-1.704 1.887-2.014.188.013.492.152.903.52.79.704 1.555 1.958 2.131 3.642.577 1.687.744 3.16.555 4.208m-6.414.078a3.633 3.633 0 0 0-.962.201l-.006-.016c-.38.132-1.188-.42-1.577-1.557a3.49 3.49 0 0 1-.113-.412c-.01-.046-.013-.089-.02-.134-.015-.085-.03-.17-.038-.252-.004-.052-.002-.098-.004-.148-.002-.07-.007-.14-.004-.205.002-.05.01-.093.014-.139.007-.06.011-.122.021-.176.008-.044.02-.082.031-.123.012-.05.023-.1.04-.146.011-.037.028-.067.043-.1.017-.04.034-.082.054-.116.017-.028.036-.049.055-.074.021-.029.042-.059.065-.082.02-.019.042-.03.063-.045.027-.019.054-.042.084-.052.31-.108.591-.25.877-.45l.003.008c.098.05.22.132.358.257.385.345.731.884.951 1.53.333.97.268 1.848.065 2.231m9.143-5.37a2.967 2.967 0 0 0-2.5-1.998C9.942.643 8.158-.368 6.756.118l.004.013L6.754.12c-.785.453-1.33 1.03-2.638 2.606l-.06.073C2.885 4.21 2.286 4.801 1.796 4.98v-.002C.25 5.513-.429 7.632.282 9.71c.09.261.196.508.318.742.042.08.095.147.14.224.087.146.17.296.268.428l.005.008 2.65 4.43a.934.934 0 0 0 1.328.296l.15-.102a.998.998 0 0 0 .36-1.205l-.856-2.084c.524-.086 1.34.02 2.713.324l.275.061c2.006.448 2.746.563 3.641.433l-.003-.019c1.382-.465 2.152-2.332 1.8-5.042a2.996 2.996 0 0 0 .766-3.14"/>
</svg>
