<svg width="24px" height="24px" viewBox="0 0 24 24" version="1.1" xmlns="http://www.w3.org/2000/svg" xmlns:xlink="http://www.w3.org/1999/xlink">
    <path d="M12,20 C7.581722,20 4,16.418278 4,12 C4,7.581722 7.581722,4 12,4 C16.418278,4 20,7.581722 20,12 C20,16.418278 16.418278,20 12,20 Z" id="path-1"></path>
    <path fill="white" d="M13.6568542,12.2426407 L15.7781746,10.1213203 C16.1686989,9.73079605 16.1686989,9.09763107 15.7781746,8.70710678 C15.3876503,8.31658249 14.7544853,8.31658249 14.363961,8.70710678 L12.2426407,10.8284271 L10.1213203,8.70710678 C9.73079605,8.31658249 9.09763107,8.31658249 8.70710678,8.70710678 C8.31658249,9.09763107 8.31658249,9.73079605 8.70710678,10.1213203 L10.8284271,12.2426407 L8.70710678,14.363961 C8.31658249,14.7544853 8.31658249,15.3876503 8.70710678,15.7781746 C9.09763107,16.1686989 9.73079605,16.1686989 10.1213203,15.7781746 L12.2426407,13.6568542 L14.363961,15.7781746 C14.7544853,16.1686989 15.3876503,16.1686989 15.7781746,15.7781746 C16.1686989,15.3876503 16.1686989,14.7544853 15.7781746,14.363961 L13.6568542,12.2426407 Z" id="path-3"></path>
</svg>
