<svg width="12px" height="12px" viewBox="0 0 12 12" version="1.1" xmlns="http://www.w3.org/2000/svg" xmlns:xlink="http://www.w3.org/1999/xlink">
    <path d="M7.36396103,5.94974747 L11.6066017,10.1923882 C11.997126,10.5829124 11.997126,11.2160774 11.6066017,11.6066017 C11.2160774,11.997126 10.5829124,11.997126 10.1923882,11.6066017 L5.94974747,7.36396103 L1.70710678,11.6066017 C1.31658249,11.997126 0.683417511,11.997126 0.292893219,11.6066017 C-0.0976310729,11.2160774 -0.0976310729,10.5829124 0.292893219,10.1923882 L4.53553391,5.94974747 L0.292893219,1.70710678 C-0.0976310729,1.31658249 -0.0976310729,0.683417511 0.292893219,0.292893219 C0.683417511,-0.0976310729 1.31658249,-0.0976310729 1.70710678,0.292893219 L5.94974747,4.53553391 L10.1923882,0.292893219 C10.5829124,-0.0976310729 11.2160774,-0.0976310729 11.6066017,0.292893219 C11.997126,0.683417511 11.997126,1.31658249 11.6066017,1.70710678 L7.36396103,5.94974747 Z" id="path-1"></path>
</svg>
