<svg viewBox="0 0 16 16" xmlns="http://www.w3.org/2000/svg">
    <path d="M8,16 C3.581722,16 0,12.418278 0,8 C0,3.581722 3.581722,0 8,0 C12.418278,0 16,3.581722 16,8 C16,12.418278 12.418278,16 8,16 Z" id="path-1"></path>
    <path fill="white" transform="translate(3.8, 3.8)" d="M5.65685425,4.24264069 L7.77817459,2.12132034 C8.16869888,1.73079605 8.16869888,1.09763107 7.77817459,0.707106781 C7.3876503,0.316582489 6.75448532,0.316582489 6.36396103,0.707106781 L4.24264069,2.82842712 L2.12132034,0.707106781 C1.73079605,0.316582489 1.09763107,0.316582489 0.707106781,0.707106781 C0.316582489,1.09763107 0.316582489,1.73079605 0.707106781,2.12132034 L2.82842712,4.24264069 L0.707106781,6.36396103 C0.316582489,6.75448532 0.316582489,7.3876503 0.707106781,7.77817459 C1.09763107,8.16869888 1.73079605,8.16869888 2.12132034,7.77817459 L4.24264069,5.65685425 L6.36396103,7.77817459 C6.75448532,8.16869888 7.3876503,8.16869888 7.77817459,7.77817459 C8.16869888,7.3876503 8.16869888,6.75448532 7.77817459,6.36396103 L5.65685425,4.24264069 Z" id="path-3"></path>
</svg>
