<svg viewBox="0 0 24 24" xmlns="http://www.w3.org/2000/svg">
    <path d="M13.363961,11.9497475 L17.6066017,16.1923882 C17.997126,16.5829124 17.997126,17.2160774 17.6066017,17.6066017 C17.2160774,17.997126 16.5829124,17.997126 16.1923882,17.6066017 L11.9497475,13.363961 L7.70710678,17.6066017 C7.31658249,17.997126 6.68341751,17.997126 6.29289322,17.6066017 C5.90236893,17.2160774 5.90236893,16.5829124 6.29289322,16.1923882 L10.5355339,11.9497475 L6.29289322,7.70710678 C5.90236893,7.31658249 5.90236893,6.68341751 6.29289322,6.29289322 C6.68341751,5.90236893 7.31658249,5.90236893 7.70710678,6.29289322 L11.9497475,10.5355339 L16.1923882,6.29289322 C16.5829124,5.90236893 17.2160774,5.90236893 17.6066017,6.29289322 C17.997126,6.68341751 17.997126,7.31658249 17.6066017,7.70710678 L13.363961,11.9497475 Z" id="path-1"></path>
</svg>
