<svg width="12px" height="19px" viewBox="0 0 12 19" version="1.1" xmlns="http://www.w3.org/2000/svg" xmlns:xlink="http://www.w3.org/1999/xlink">
    <!-- Generator: Sketch 50.2 (55047) - http://www.bohemiancoding.com/sketch -->
    <desc>Created with Sketch.</desc>
    <defs>
        <path d="M9.781,10.806 C9.352,11.159 8.722,11.093 8.374,10.659 C8.026,10.224 8.091,9.585 8.52,9.232 C9.45,8.466 10,7.321 10,6.083 C10,3.844 8.209,2.028 6,2.028 C3.791,2.028 2,3.844 2,6.083 C2,6.73 2.149,7.353 2.431,7.916 C2.689,8.432 3.055,8.888 3.502,9.25 C3.932,9.6 4.002,10.238 3.657,10.675 C3.311,11.112 2.682,11.182 2.251,10.832 C1.583,10.29 1.035,9.608 0.648,8.834 C0.224,7.988 0,7.051 0,6.083 C0,2.723 2.686,0 6,0 C9.314,0 12,2.723 12,6.083 C12,7.938 11.174,9.659 9.781,10.806 M4.484,12.428 L8.347,13.477 C8.881,13.622 9.198,14.178 9.054,14.719 C8.911,15.26 8.363,15.58 7.83,15.435 L3.966,14.386 C3.432,14.241 3.116,13.685 3.259,13.144 C3.402,12.604 3.95,12.283 4.484,12.428 M5.484,16.483 L7.415,17.007 C7.949,17.152 8.265,17.708 8.123,18.249 C7.98,18.79 7.431,19.111 6.898,18.966 L4.966,18.441 C4.432,18.296 4.116,17.74 4.259,17.2 C4.402,16.659 4.95,16.338 5.484,16.483" id="path-1"></path>
    </defs>
    <g id="Symbols" stroke="none" stroke-width="1" fill="none" fill-rule="evenodd">
        <g id="Icon-/-Menu-/-Creatives" transform="translate(-6.000000, -2.000000)">
            <g id="Shape-/-Fill" transform="translate(6.000000, 2.000000)">
                <mask id="mask-2" fill="white">
                    <use xlink:href="#path-1"></use>
                </mask>
                <use id="Mask" fill="#271818" xlink:href="#path-1"></use>
                <g id="Colors-/-Grey-/-swatch-D25" mask="url(#mask-2)" fill="#42566E">
                    <g transform="translate(-6.000000, -2.000000)">
                        <rect x="0" y="0" width="24" height="24"></rect>
                    </g>
                </g>
            </g>
        </g>
    </g>
</svg>
