<svg width="16px" height="16px" viewBox="0 0 16 16" xmlns="http://www.w3.org/2000/svg">
    <path d="M2,14 L5,14 L5,2 L2,2 L2,14 Z M1,0 L6,0 C6.552,0 7,0.448 7,1 L7,15 C7,15.552 6.552,16 6,16 L1,16 C0.448,16 0,15.552 0,15 L0,1 C0,0.448 0.448,0 1,0 Z M10,9 L15,9 C15.552,9 16,9.448 16,10 L16,15 C16,15.552 15.552,16 15,16 L10,16 C9.448,16 9,15.552 9,15 L9,10 C9,9.448 9.448,9 10,9 Z M10,0 L15,0 C15.552,0 16,0.448 16,1 L16,6 C16,6.552 15.552,7 15,7 L10,7 C9.448,7 9,6.552 9,6 L9,1 C9,0.448 9.448,0 10,0 Z M11,14 L14,14 L14,11 L11,11 L11,14 Z" id="path-1"></path>
</svg>
