<svg viewBox="0 0 24 24"  xmlns="http://www.w3.org/2000/svg">
    <path d="M6,18 L9,18 L9,6 L6,6 L6,18 Z M5,4 L10,4 C10.552,4 11,4.448 11,5 L11,19 C11,19.552 10.552,20 10,20 L5,20 C4.448,20 4,19.552 4,19 L4,5 C4,4.448 4.448,4 5,4 Z M14,13 L19,13 C19.552,13 20,13.448 20,14 L20,19 C20,19.552 19.552,20 19,20 L14,20 C13.448,20 13,19.552 13,19 L13,14 C13,13.448 13.448,13 14,13 Z M14,4 L19,4 C19.552,4 20,4.448 20,5 L20,10 C20,10.552 19.552,11 19,11 L14,11 C13.448,11 13,10.552 13,10 L13,5 C13,4.448 13.448,4 14,4 Z M15,18 L18,18 L18,15 L15,15 L15,18 Z" id="path-1"></path>
</svg>
