<svg width="16px" height="16px" viewBox="0 0 16 16" version="1.1" xmlns="http://www.w3.org/2000/svg" xmlns:xlink="http://www.w3.org/1999/xlink">
    <defs>
        <path d="M8,16 C3.581722,16 0,12.418278 0,8 C0,3.581722 3.581722,0 8,0 C12.418278,0 16,3.581722 16,8 C16,12.418278 12.418278,16 8,16 Z" id="path-1"></path>
        <path d="M7.10992479,0.875733732 C6.7194005,0.48520944 6.08623552,0.48520944 5.69571123,0.875733732 L1.28488032,5.85538046 C0.89435603,6.24590475 0.89435603,6.87906973 1.28488032,7.26959402 C1.67540461,7.66011831 2.30856959,7.66011831 2.69909388,7.26959402 L7.10992479,2.28994729 C7.50044908,1.899423 7.50044908,1.26625802 7.10992479,0.875733732 Z" id="path-3"></path>
    </defs>
    <g id="Symbols" stroke="none" stroke-width="1" fill="none" fill-rule="evenodd">
        <g id="Icon-/-Status-/-Deactivated" transform="translate(-4.000000, -4.000000)">
            <g id="Colors-/-Dark-Blue-/-primary-800" transform="translate(4.000000, 4.000000)">
                <mask id="mask-2" fill="white">
                    <use xlink:href="#path-1"></use>
                </mask>
                <use id="Mask" fill="#7594AE" xlink:href="#path-1"></use>
                <g id="Colors-/-Grey-/-swatch-D25" mask="url(#mask-2)" fill="#42566E">
                    <g transform="translate(-4.000000, -4.000000)">
                        <rect x="0" y="0" width="24" height="24"></rect>
                    </g>
                </g>
            </g>
            <g id="Colors-/-White" transform="translate(8.000000, 8.000000)">
                <mask id="mask-4" fill="white">
                    <use xlink:href="#path-3"></use>
                </mask>
                <use id="Mask" fill="#7594AE" xlink:href="#path-3"></use>
                <g mask="url(#mask-4)" fill="#FFFFFF" id="Rectangle-10-Copy-33">
                    <g transform="translate(-4.000000, -4.000000)">
                        <rect x="0" y="0" width="16" height="16"></rect>
                    </g>
                </g>
            </g>
        </g>
    </g>
</svg>
