<svg xmlns="http://www.w3.org/2000/svg" viewBox="0 0 24 24">
    <path d="M17.5002,10 C17.5002,9.448 17.0522,9 16.5002,9 L7.5002,9 C6.9482,9 6.5002,9.448 6.5002,10 C6.37961091,11.2697148 6.37961091,12.6030481 6.5002,14 C6.62078909,15.3969519 6.85578909,16.7859519 7.2052,18.167 C7.2872,18.648 7.7032,19 8.1912,19 L15.8092,19 C16.2962,19 16.7132,18.648 16.7942,18.167 C17.1502843,16.7144871 17.3856177,15.3254871 17.5002,14 C17.6147823,12.6745129 17.6147823,11.3411795 17.5002,10 Z M18.7142,19.35 C18.5442,20.305 17.7142,21 16.7452,21 L7.2552,21 C6.2862,21 5.4562,20.304 5.2862,19.35 C4.9682,17.561 4.7472,15.777 4.6222,14 C4.5042,12.318 4.4712,10.63 4.5242,8.938 C4.5582,7.858 5.4432,7 6.5232,7 L17.4772,7 C18.5572,7 19.4412,7.857 19.4762,8.937 C19.5282,10.62 19.4952,12.307 19.3762,14 C19.2502,15.789 19.0302,17.573 18.7142,19.35 Z M6.5372,4 L6.6382,3.69 C6.7722,3.279 7.1562,3 7.5892,3 L9.5002,3 C9.5002,2.448 9.9482,2 10.5002,2 L13.5002,2 C14.0522,2 14.5002,2.448 14.5002,3 L16.4112,3 C16.8442,3 17.2282,3.279 17.3612,3.69 L17.4622,4 C17.5932,4.401 17.3742,4.832 16.9722,4.962 C16.8962,4.987 16.8162,5 16.7362,5 L7.2632,5 C6.8422,5 6.5002,4.658 6.5002,4.236 C6.5002,4.156 6.5122,4.076 6.5372,4 Z"/>
</svg>
