<svg viewBox="0 0 16 19" xmlns:xlink="http://www.w3.org/1999/xlink">
    <path d="M13.5002,8 C13.5002,7.448 13.0522,7 12.5002,7 L3.5002,7 C2.9482,7 2.5002,7.448 2.5002,8 C2.37961091,9.26971475 2.37961091,10.6030481 2.5002,12 C2.62078909,13.3969519 2.85578909,14.7859519 3.2052,16.167 C3.2872,16.648 3.7032,17 4.1912,17 L11.8092,17 C12.2962,17 12.7132,16.648 12.7942,16.167 C13.1502843,14.7144871 13.3856177,13.3254871 13.5002,12 C13.6147823,10.6745129 13.6147823,9.34117953 13.5002,8 Z M14.7142,17.35 C14.5442,18.305 13.7142,19 12.7452,19 L3.2552,19 C2.2862,19 1.4562,18.304 1.2862,17.35 C0.9682,15.561 0.7472,13.777 0.6222,12 C0.5042,10.318 0.4712,8.63 0.5242,6.938 C0.5582,5.858 1.4432,5 2.5232,5 L13.4772,5 C14.5572,5 15.4412,5.857 15.4762,6.937 C15.5282,8.62 15.4952,10.307 15.3762,12 C15.2502,13.789 15.0302,15.573 14.7142,17.35 Z M2.5372,2 L2.6382,1.69 C2.7722,1.279 3.1562,1 3.5892,1 L5.5002,1 C5.5002,0.448 5.9482,0 6.5002,0 L9.5002,0 C10.0522,0 10.5002,0.448 10.5002,1 L12.4112,1 C12.8442,1 13.2282,1.279 13.3612,1.69 L13.4622,2 C13.5932,2.401 13.3742,2.832 12.9722,2.962 C12.8962,2.987 12.8162,3 12.7362,3 L3.2632,3 C2.8422,3 2.5002,2.658 2.5002,2.236 C2.5002,2.156 2.5122,2.076 2.5372,2 Z" id="path-1"></path>
</svg>
