<svg xmlns="http://www.w3.org/2000/svg" xmlns:xlink="http://www.w3.org/1999/xlink" viewBox="0 0 24 24">
    <path id="a" d="M13.5 8a1 1 0 0 0-1-1h-9a1 1 0 0 0-1 1c-.12 1.27-.12 2.603 0 4 .12 1.397.356 2.786.705 4.167a1 1 0 0 0 .986.833h7.618a1 1 0 0 0 .985-.833A27.47 27.47 0 0 0 13.5 12a23.316 23.316 0 0 0 0-4zm1.214 9.35A2 2 0 0 1 12.745 19h-9.49a2.001 2.001 0 0 1-1.969-1.65A51.009 51.009 0 0 1 .622 12a49.953 49.953 0 0 1-.098-5.062 2 2 0 0 1 2-1.938h10.953a2 2 0 0 1 2 1.937c.051 1.683.018 3.37-.1 5.063a51.01 51.01 0 0 1-.663 5.35zM2.537 2l.101-.31A1 1 0 0 1 3.59 1H5.5a1 1 0 0 1 1-1h3a1 1 0 0 1 1 1h1.911c.433 0 .817.279.95.69l.101.31a.762.762 0 0 1-.726 1H3.263a.764.764 0 0 1-.726-1z"/>
</svg>
