<svg width="18px" height="21px" viewBox="0 0 18 21" version="1.1" xmlns="http://www.w3.org/2000/svg" xmlns:xlink="http://www.w3.org/1999/xlink">
    <path d="M8,9.70726589 L5.83442956,6.42842707 C5.53005736,5.96758435 4.90972811,5.84073993 4.44888539,6.14511212 C3.98804267,6.44948432 3.86119825,7.06981357 4.16557044,7.53065629 L8.11550467,13.511158 C8.4381392,13.9996513 9.09568821,14.1341063 9.58418149,13.8114718 C9.75459811,13.6815746 9.75459811,13.6815746 9.88449533,13.511158 L13.8344296,7.53065629 C14.1388018,7.06981357 14.0119573,6.44948432 13.5511146,6.14511212 C13.0902719,5.84073993 12.4699426,5.96758435 12.1655704,6.42842707 L10,9.70726589 L10,1 C10,0.44771525 9.55228475,0 9,0 C8.44771525,0 8,0.44771525 8,1 L8,9.70726589 Z M16,18.9870934 L16,13.9870934 C16,13.4348086 16.4477153,12.9870934 17,12.9870934 C17.5522847,12.9870934 18,13.4348086 18,13.9870934 L18,20.9870934 L0,20.9870934 L0,13.9870934 C0,13.4348086 0.44771525,12.9870934 1,12.9870934 C1.55228475,12.9870934 2,13.4348086 2,13.9870934 L2,18.9870934 L16,18.9870934 Z" id="path-1"></path>
</svg>
