<svg width="8px" height="11px" viewBox="0 0 8 11" version="1.1" xmlns="http://www.w3.org/2000/svg" xmlns:xlink="http://www.w3.org/1999/xlink">
    <path d="M3.02687132,7.07595704 L3.02687132,1 C3.02687132,0.44771525 3.47458657,0 4.02687132,0 C4.57915607,0 5.02687132,0.44771525 5.02687132,1 L5.02687132,7.07033063 L6.23921649,5.41023715 C6.56493352,4.96422497 7.19054365,4.86670649 7.63655583,5.19242351 C8.08256801,5.51814054 8.1800865,6.14375067 7.85436947,6.58976285 L4.99577936,10.5040992 C4.60491893,11.0393138 3.85418677,11.156336 3.31897216,10.7654756 C3.21922263,10.6926298 3.13131779,10.6048202 3.05836385,10.5051497 L0.193131614,6.59063828 C-0.1330689,6.14497959 -0.0362289142,5.51926407 0.409429777,5.19306356 C0.855088469,4.86686304 1.48080399,4.96370303 1.8070045,5.40936172 L3.02687132,7.07595704 Z" id="path-1"></path>
</svg>
