<svg viewBox="0 0 24 24" xmlns="http://www.w3.org/2000/svg">
	<path d="M11,11.7072659 L8.83442956,8.42842707 C8.53005736,7.96758435 7.90972811,7.84073993 7.44888539,8.14511212 C6.98804267,8.44948432 6.86119825,9.06981357 7.16557044,9.53065629 L11.1155047,15.511158 C11.4381392,15.9996513 12.0956882,16.1341063 12.5841815,15.8114718 C12.7545981,15.6815746 12.7545981,15.6815746 12.8844953,15.511158 L16.8344296,9.53065629 C17.1388018,9.06981357 17.0119573,8.44948432 16.5511146,8.14511212 C16.0902719,7.84073993 15.4699426,7.96758435 15.1655704,8.42842707 L13,11.7072659 L13,3 C13,2.44771525 12.5522847,2 12,2 C11.4477153,2 11,2.44771525 11,3 L11,11.7072659 Z M19,20.9870934 L19,15.9870934 C19,15.4348086 19.4477153,14.9870934 20,14.9870934 C20.5522847,14.9870934 21,15.4348086 21,15.9870934 L21,22.9870934 L3,22.9870934 L3,15.9870934 C3,15.4348086 3.44771525,14.9870934 4,14.9870934 C4.55228475,14.9870934 5,15.4348086 5,15.9870934 L5,20.9870934 L19,20.9870934 Z" id="path-1"></path>
</svg>
