<svg viewBox="0 0 16 16" xmlns="http://www.w3.org/2000/svg">
    <path d="M8,16 C3.581722,16 0,12.418278 0,8 C0,3.581722 3.581722,-1.77635684e-15 8,0 C12.418278,0 16,3.581722 16,8 C16,12.418278 12.418278,16 8,16 Z" id="path-1"></path>
    <path transform="translate(4.000000, 4.000000)" fill="white" d="M6.97134191,3.02865809 L5.13308774,1.19040392 L5.5795354,0.743956257 C5.91569091,0.407800747 6.3939524,0.341046469 6.64776234,0.594856405 L7.56688942,1.51398349 C7.82069936,1.76779343 7.75394508,2.24605492 7.41778957,2.58221043 L6.97134191,3.02865809 Z M5.88612079,4.11387921 L3.16846239,6.83153761 C2.91786297,7.08213703 2.60857472,7.25799993 2.29498922,7.32819897 L0.86542963,7.64821922 C0.655106924,7.69530192 0.493463382,7.56706094 0.504388674,7.36178498 C0.505533877,7.3402677 0.508591339,7.31836249 0.513526606,7.2963162 L0.833546863,5.86675661 C0.903745904,5.55317111 1.0796088,5.24388286 1.33020822,4.99328344 L4.04786662,2.27562504 L5.88612079,4.11387921 Z" id="path-3"></path>
</svg>
