<svg xmlns="http://www.w3.org/2000/svg" xmlns:xlink="http://www.w3.org/1999/xlink" viewBox="0 0 24 24">
    <defs>
        <path id="a" d="M10 20C4.477 20 0 15.523 0 10S4.477 0 10 0s10 4.477 10 10-4.477 10-10 10z"/>
    </defs>
    <g fill="none" fill-rule="evenodd" transform="translate(2 2)">
        <mask id="b" fill="#fff">
            <use xlink:href="#a"/>
        </mask>
        <use fill="#000" xlink:href="#a"/>
        <g  mask="url(#b)">
            <path d="M-2-2h24v24H-2z"/>
        </g>
        <g mask="url(#b)">
            <path fill="#FFF" d="M13.633 8.258l-2.22-2.219.758-.824a.5.5 0 0 1 .722-.015l1.58 1.58a.5.5 0 0 1-.016.723l-.824.755zm-1.21 1.109l-4.833 4.43-1.928.4a.2.2 0 0 1-.236-.237l.38-1.823 4.497-4.89 2.12 2.12z"/>
        </g>
    </g>
</svg>
