<svg viewBox="0 0 18 18" xmlns="http://www.w3.org/2000/svg">

  <path fill="#42566E" transform="translate(8.000000, 9.722598) rotate(45.000000) translate(-11.000000, -10.722598) " d="M12.6485997,16.9275527 C12.8755726,16.6573227 13,16.3157186 13,15.962815 L13,2 L9,2 L9,15.962815 C9,16.3157186 9.1244274,16.6573227 9.35140032,16.9275527 L11,18.8903464 L12.6485997,16.9275527 Z M9,0 L13,0 C14.1045695,-1.02748945e-16 15,0.8954305 15,2 L15,15.962815 C15,16.7862567 14.7096694,17.583333 14.1800659,18.2138696 L11.7657331,21.0883316 C11.4105265,21.5112344 10.7797443,21.5661129 10.3568415,21.2109063 C10.3125124,21.1736731 10.2715001,21.1326608 10.2342669,21.0883316 L7.81993409,18.2138696 C7.29033059,17.583333 7,16.7862567 7,15.962815 L7,2 C7,0.8954305 7.8954305,-1.25124893e-15 9,0 Z M9,5 L13,5 L13,7 L9,7 L9,5 Z" id="path-1"></path>

</svg>
