<svg xmlns="http://www.w3.org/2000/svg" viewBox="0 0 24 24">
    <path id="edit-a" d="M12,20 C7.581722,20 4,16.418278 4,12 C4,7.581722 7.581722,4 12,4 C16.418278,4 20,7.581722 20,12 C20,16.418278 16.418278,20 12,20 Z"/>
    <path fill="#FFF" id="edit-b" d="M14.9713419,11.0286581 L13.1330877,9.19040392 L13.5795354,8.74395626 C13.9156909,8.40780075 14.3939524,8.34104647 14.6477623,8.59485641 L15.5668894,9.51398349 C15.8206994,9.76779343 15.7539451,10.2460549 15.4177896,10.5822104 L14.9713419,11.0286581 Z M13.8861208,12.1138792 L11.1684624,14.8315376 C10.917863,15.082137 10.6085747,15.2579999 10.2949892,15.328199 L8.86542963,15.6482192 C8.65510692,15.6953019 8.49346338,15.5670609 8.50438867,15.361785 C8.50553388,15.3402677 8.50859134,15.3183625 8.51352661,15.2963162 L8.83354686,13.8667566 C8.9037459,13.5531711 9.0796088,13.2438829 9.33020822,12.9932834 L12.0478666,10.275625 L13.8861208,12.1138792 Z"/>
</svg>
