<svg viewBox="0 0 24 24" xmlns="http://www.w3.org/2000/svg">
    <path transform="translate(12.000000, 12.722598) rotate(45.000000) translate(-12.000000, -12.722598)" d="M13.6485997,18.9275527 C13.8755726,18.6573227 14,18.3157186 14,17.962815 L14,4 L10,4 L10,17.962815 C10,18.3157186 10.1244274,18.6573227 10.3514003,18.9275527 L12,20.8903464 L13.6485997,18.9275527 Z M10,2 L14,2 C15.1045695,2 16,2.8954305 16,4 L16,17.962815 C16,18.7862567 15.7096694,19.583333 15.1800659,20.2138696 L12.7657331,23.0883316 C12.4105265,23.5112344 11.7797443,23.5661129 11.3568415,23.2109063 C11.3125124,23.1736731 11.2715001,23.1326608 11.2342669,23.0883316 L8.81993409,20.2138696 C8.29033059,19.583333 8,18.7862567 8,17.962815 L8,4 C8,2.8954305 8.8954305,2 10,2 Z M10,7 L14,7 L14,9 L10,9 L10,7 Z" id="path-1"></path>
</svg>
