<svg version="1.1" xmlns="http://www.w3.org/2000/svg" viewBox="0 0 24 24">
        <path transform="translate(2 2)" d="M10,20 C4.477,20 0,15.523 0,10 C0,4.477 4.477,0 10,0 C15.523,0 20,4.477 20,10 C20,15.523 15.523,20 10,20 Z M12.423,9.367 L10.303,7.247 L5.806,12.137 L5.426,13.96 C5.41215112,14.0259601 5.43245541,14.0944593 5.48001231,14.1422177 C5.52756921,14.1899761 5.59598194,14.2105699 5.662,14.197 L7.59,13.797 L12.423,9.367 Z M13.633,8.258 L14.457,7.503 C14.5578467,7.41086642 14.6166086,7.2814852 14.6196308,7.14492198 C14.6226529,7.00835876 14.5696721,6.87650467 14.473,6.78 L12.893,5.2 C12.7966647,5.10352139 12.6651091,5.05056653 12.5287984,5.05339847 C12.3924878,5.05623041 12.2632451,5.11460351 12.171,5.215 L11.413,6.039 L13.633,8.258 Z" id="a"></path>
</svg>
