<svg version="1.1" xmlns="http://www.w3.org/2000/svg" viewBox="0 0 24 24">
    <path transform="translate(2 2)" d="M10,20 C4.477,20 0,15.523 0,10 C0,4.477 4.477,0 10,0 C15.523,0 20,4.477 20,10 C20,15.523 15.523,20 10,20 Z M9.675,4 C9.39486771,4.00033847 9.12772148,4.11816228 8.93857544,4.3247972 C8.74942939,4.53143212 8.65562827,4.8079297 8.68,5.087 L9.264,11.815 C9.29766696,12.200449 9.62008399,12.4963957 10.007,12.497 C10.3966791,12.4973223 10.7241558,12.2043167 10.767,11.817 L11.505,5.11 C11.5362817,4.82734627 11.4457408,4.54474275 11.2560288,4.33289131 C11.0663168,4.12103987 10.7953795,3.99998054 10.511,4 L9.675,4 Z M10,13.75 C9.30964406,13.75 8.75,14.3096441 8.75,15 C8.75,15.6903559 9.30964406,16.25 10,16.25 C10.6903559,16.25 11.25,15.6903559 11.25,15 C11.25,14.3096441 10.6903559,13.75 10,13.75 Z" id="a"></path>
</svg>
