<svg width="16px" height="16px" viewBox="0 0 16 16" version="1.1" xmlns="http://www.w3.org/2000/svg" xmlns:xlink="http://www.w3.org/1999/xlink">
    <defs>
        <path d="M8,16 C3.581722,16 0,12.418278 0,8 C0,3.581722 3.581722,-1.77635684e-15 8,0 C12.418278,0 16,3.581722 16,8 C16,12.418278 12.418278,16 8,16 Z" id="path-1"></path>
        <path d="M0.816191035,1.48603005 C0.771317523,0.935571319 1.18850298,0.432287813 1.95012293,0.405700684 C2.71174289,0.379113555 3.14371349,0.852494618 3.14371349,1.40477937 C3.14371349,1.43528248 3.14231783,1.46576961 3.13953089,1.49614514 L2.69708849,6.3184308 C2.66166453,6.70452504 2.33783884,7 1.95012293,7 C1.56344486,7 1.24149833,6.70323064 1.21008047,6.31783103 L0.816191035,1.48603005 Z M2,8 C2.55228475,8 3,8.44771525 3,9 C3,9.55228475 2.55228475,10 2,10 C1.44771525,10 1,9.55228475 1,9 C1,8.44771525 1.44771525,8 2,8 Z" id="path-3"></path>
    </defs>
    <g id="Symbols" stroke="none" stroke-width="1" fill="none" fill-rule="evenodd">
        <g id="Icon-/-Error" transform="translate(-4.000000, -4.000000)">
            <g id="Colors-/-Dark-Blue-/-primary-800" transform="translate(4.000000, 4.000000)">
                <mask id="mask-2" fill="white">
                    <use xlink:href="#path-1"></use>
                </mask>
                <use id="Mask" fill="#FFB043" xlink:href="#path-1"></use>
                <g id="Colors-/-Grey-/-swatch-D25" mask="url(#mask-2)" fill="#42566E">
                    <g transform="translate(-4.000000, -4.000000)">
                        <rect x="0" y="0" width="24" height="24"></rect>
                    </g>
                </g>
            </g>
            <g id="Colors-/-White" transform="translate(10.000000, 7.000000)">
                <mask id="mask-4" fill="white">
                    <use xlink:href="#path-3"></use>
                </mask>
                <use id="Mask" fill="#FFB043" xlink:href="#path-3"></use>
                <g mask="url(#mask-4)" fill="#FFFFFF" id="Rectangle-10-Copy-33">
                    <g transform="translate(-6.000000, -3.000000)">
                        <rect x="0" y="0" width="16" height="16"></rect>
                    </g>
                </g>
            </g>
        </g>
    </g>
</svg>
