<svg xmlns="http://www.w3.org/2000/svg" viewBox="0 0 24 24">
    <path transform="translate(2 2)" d="M10,20 C4.477,20 0,15.523 0,10 C0,4.477 4.477,0 10,0 C15.523,0 20,4.477 20,10 C20,15.523 15.523,20 10,20 Z M11.414,10 L13.699,7.715 C13.999,7.414 13.926,6.854 13.536,6.463 C13.145,6.073 12.584,6 12.284,6.3 L10,8.586 L7.715,6.301 C7.414,6.001 6.854,6.074 6.463,6.464 C6.073,6.855 6,7.416 6.3,7.716 L8.586,10 L6.301,12.285 C6.001,12.586 6.074,13.146 6.464,13.537 C6.855,13.927 7.416,14 7.716,13.7 L10,11.414 L12.284,13.699 C12.585,13.999 13.145,13.926 13.536,13.536 C13.926,13.145 13.999,12.584 13.699,12.284 L11.414,10 Z" id="a"></path>
</svg>
