<svg viewBox="0 0 24 24" xmlns="http://www.w3.org/2000/svg">
   <path d="M18,13 L15,13 C14.448,13 14,13.448 14,14 L14,18 L7,18 L7,6 L18,6 L18,13 Z M19,4 L6,4 C5.448,4 5,4.448 5,5 L5,19 C5,19.552 5.448,20 6,20 L14.002,20 L20,13 L20,5 C20,4.448 19.552,4 19,4 Z M10,8 L14,8 C14.552,8 15,8.448 15,9 C15,9.552 14.552,10 14,10 L10,10 C9.448,10 9,9.552 9,9 C9,8.448 9.448,8 10,8 Z M10,12 L12,12 C12.552,12 13,12.448 13,13 C13,13.552 12.552,14 12,14 L10,14 C9.448,14 9,13.552 9,13 C9,12.448 9.448,12 10,12 Z" id="path-1"></path>
</svg>
