<svg xmlns="http://www.w3.org/2000/svg" viewBox="0 0 24 24">
    <path transform="translate(4 4)" id="a" d="M14 8.288V2H2v5.317c1.584-.013 2.447.827 3.193 2.417.063.133.254.557.274.6.097.21.171.357.225.459.14-.263.294-.643.482-1.18.102-.293.475-1.413.481-1.433C7.64 5.272 8.387 4.01 10.02 4c1.4-.01 2.07.75 2.945 2.52l.2.41c.316.636.575 1.072.836 1.358zm0 2.334c-1.128-.313-1.844-1.223-2.628-2.805l-.202-.411c-.543-1.1-.815-1.408-1.138-1.406-.305.002-.826.88-1.482 2.82-.002.007-.38 1.143-.489 1.453C7.381 12.22 6.9 13.028 5.737 13c-1.034-.026-1.525-.61-2.086-1.83-.025-.053-.213-.469-.269-.587-.45-.96-.772-1.273-1.371-1.266H2V14h12v-3.378zM2 0h12a2 2 0 0 1 2 2v12a2 2 0 0 1-2 2H2a2 2 0 0 1-2-2V2a2 2 0 0 1 2-2z"/>
</svg>
