<svg width="16px" height="16px" viewBox="0 0 16 16" version="1.1" xmlns="http://www.w3.org/2000/svg" xmlns:xlink="http://www.w3.org/1999/xlink">
    <path d="M14,8.2877941 L14,2 L2,2 L2,7.31676266 C3.58378005,7.3038117 4.44725224,8.14414567 5.19301768,9.73365168 C5.25563793,9.86711893 5.44743542,10.2914956 5.46681845,10.33354 C5.56369345,10.5436747 5.63843558,10.6909556 5.69176204,10.7925797 C5.8313096,10.5304711 5.9856861,10.1500216 6.17358783,9.6129215 C6.27613531,9.31979884 6.64866346,8.19980756 6.65545485,8.17972076 C7.63860865,5.27186135 8.38684451,4.01074004 10.0187695,4.00005075 C11.4196682,3.99087471 12.0891662,4.74946214 12.9635196,6.52075799 C12.9888414,6.57205567 13.1257335,6.85103558 13.1646405,6.92961511 C13.4797195,7.56597288 13.7393878,8.00245716 14,8.2877941 Z M14,10.6220941 C12.8717916,10.3089931 12.1555953,9.39903918 11.3723074,7.81705079 C11.3314353,7.73450235 11.1938173,7.45404324 11.1701145,7.40602508 C10.6268459,6.30545264 10.3554026,5.99788867 10.0318694,6.00000785 C9.72704147,6.00200451 9.20610869,6.88001566 8.55009341,8.82030231 C8.54772237,8.82731511 8.16997499,9.9629978 8.06139581,10.2733615 C7.38033935,12.2200997 6.89954765,13.0280769 5.73730141,12.9995733 C4.70325107,12.9742137 4.21235125,12.3895199 3.65053719,11.1708705 C3.62561112,11.1168025 3.43769573,10.7010155 3.38239957,10.5831586 C2.93215444,9.62351729 2.60971374,9.31043181 2.01054465,9.31675019 C2.00702569,9.3167873 2.00351077,9.31680619 2,9.31680694 L2,14 L14,14 L14,10.6220941 Z M2,1.77635684e-15 L14,1.77635684e-15 C15.1045695,1.57345071e-15 16,0.8954305 16,2 L16,14 C16,15.1045695 15.1045695,16 14,16 L2,16 C0.8954305,16 1.3527075e-16,15.1045695 0,14 L0,2 C-1.3527075e-16,0.8954305 0.8954305,1.97926296e-15 2,1.77635684e-15 Z" id="path-1"></path>
</svg>
