<svg viewBox="0 0 24 24" xmlns="http://www.w3.org/2000/svg">
    <path d="M18,12.2877941 L18,6 L6,6 L6,11.3167627 C7.58378005,11.3038117 8.44725224,12.1441457 9.19301768,13.7336517 C9.25563793,13.8671189 9.44743542,14.2914956 9.46681845,14.33354 C9.56369345,14.5436747 9.63843558,14.6909556 9.69176204,14.7925797 C9.8313096,14.5304711 9.9856861,14.1500216 10.1735878,13.6129215 C10.2761353,13.3197988 10.6486635,12.1998076 10.6554549,12.1797208 C11.6386086,9.27186135 12.3868445,8.01074004 14.0187695,8.00005075 C15.4196682,7.99087471 16.0891662,8.74946214 16.9635196,10.520758 C16.9888414,10.5720557 17.1257335,10.8510356 17.1646405,10.9296151 C17.4797195,11.5659729 17.7393878,12.0024572 18,12.2877941 Z M18,14.6220941 C16.8717916,14.3089931 16.1555953,13.3990392 15.3723074,11.8170508 C15.3314353,11.7345023 15.1938173,11.4540432 15.1701145,11.4060251 C14.6268459,10.3054526 14.3554026,9.99788867 14.0318694,10.0000078 C13.7270415,10.0020045 13.2061087,10.8800157 12.5500934,12.8203023 C12.5477224,12.8273151 12.169975,13.9629978 12.0613958,14.2733615 C11.3803393,16.2200997 10.8995476,17.0280769 9.73730141,16.9995733 C8.70325107,16.9742137 8.21235125,16.3895199 7.65053719,15.1708705 C7.62561112,15.1168025 7.43769573,14.7010155 7.38239957,14.5831586 C6.93215444,13.6235173 6.60971374,13.3104318 6.01054465,13.3167502 C6.00702569,13.3167873 6.00351077,13.3168062 6,13.3168069 L6,18 L18,18 L18,14.6220941 Z M6,4 L18,4 C19.1045695,4 20,4.8954305 20,6 L20,18 C20,19.1045695 19.1045695,20 18,20 L6,20 C4.8954305,20 4,19.1045695 4,18 L4,6 C4,4.8954305 4.8954305,4 6,4 Z" id="path-1"></path>
</svg>
