<svg xmlns="http://www.w3.org/2000/svg" xmlns:xlink="http://www.w3.org/1999/xlink" viewBox="0 0 24 24">
    <path id="a" d="M5.266 15.82C3.78 14.47 2.4 12.698 1.128 10.51l-.293-.502.293-.504C4.396 3.892 8.363 1.01 13 1.01c1.966 0 3.812.518 5.534 1.542l1.39-1.39a1 1 0 0 1 1.415 1.413L5.075 18.84a1 1 0 1 1-1.414-1.414l1.605-1.605zM17.063 4.022A8.63 8.63 0 0 0 13 3.01c-3.702 0-6.974 2.287-9.844 6.998 1.114 1.828 2.288 3.291 3.525 4.397l1.958-1.958a5 5 0 0 1 6.808-6.808l1.616-1.617zM13.937 7.15a3 3 0 0 0-3.788 3.788l3.788-3.788zM9.26 16.154c1.195.57 2.44.851 3.74.851 3.701 0 6.972-2.289 9.837-7.005-1.035-1.7-2.123-3.083-3.265-4.158l1.413-1.413c1.387 1.316 2.68 3.008 3.88 5.068l.292.503-.292.502C21.602 16.12 17.638 19.005 13 19.005c-1.85 0-3.592-.458-5.226-1.365l1.486-1.486zm1.623-1.623l1.58-1.58a3 3 0 0 0 3.49-3.49l1.578-1.578a5 5 0 0 1-6.648 6.648z"/>
</svg>
