<svg xmlns="http://www.w3.org/2000/svg" viewBox="0 0 16 16">
	<path class="st0" d="M8.573,10.317l1.745-1.746C10.105,9.433,9.434,10.104,8.573,10.317z M14.822,2.872L2.873,14.822
		c-0.466,0.469-1.221,0.473-1.689,0.006c-0.002-0.002-0.005-0.003-0.007-0.006c-0.469-0.465-0.472-1.221-0.007-1.689
		c0.003-0.004,0.004-0.005,0.007-0.007l1.72-1.721c-1.013-0.886-1.88-1.926-2.57-3.084L0.125,7.998l0.203-0.323
		C2.419,4.318,5,2.621,8,2.621c1.043-0.02,2.077,0.185,3.036,0.598l2.09-2.044c0.469-0.468,1.229-0.468,1.696,0
		C15.294,1.643,15.294,2.402,14.822,2.872z M9.542,4.759C9.058,4.534,8.534,4.416,8,4.412c-1.98,0-3.585,1.606-3.585,3.585
		c0.003,0.534,0.121,1.06,0.347,1.542l0.932-0.932c-0.058-0.199-0.085-0.403-0.083-0.61c0-1.319,1.069-2.39,2.39-2.39
		c0.207-0.001,0.412,0.027,0.61,0.083L9.542,4.759z M15.66,7.675c-0.556-0.905-1.209-1.747-1.948-2.51l-2.186,2.199
		c0.018,0.21,0.018,0.423,0,0.633c0,1.98-1.606,3.587-3.585,3.587c-0.211,0.018-0.423,0.018-0.635,0l-1.47,1.47
		c0.7,0.217,1.43,0.326,2.164,0.322c3.001,0,5.58-1.696,7.672-5.055l0.203-0.323L15.66,7.675z"/>
</svg>
