<svg width="26px" height="20px" viewBox="0 0 26 20" version="1.1" xmlns="http://www.w3.org/2000/svg" xmlns:xlink="http://www.w3.org/1999/xlink">
    <path d="M5.26583952,15.8199469 C3.78136748,14.4710147 2.40139422,12.6983234 1.12762528,10.5108701 L0.834603234,10.0076611 L1.12762528,9.50445209 C4.39561278,3.89231193 8.36267178,1.01027006 13,1.01027006 C14.9663357,1.01027006 16.8117049,1.52801012 18.5338796,2.55190683 L19.9246212,1.16116524 C20.3151455,0.770640943 20.9483105,0.770640943 21.3388348,1.16116524 C21.7293591,1.55168953 21.7293591,2.18485451 21.3388348,2.5753788 L5.0753788,18.8388348 C4.68485451,19.2293591 4.05168953,19.2293591 3.66116524,18.8388348 C3.27064094,18.4483105 3.27064094,17.8151455 3.66116524,17.4246212 L5.26583952,15.8199469 Z M17.0632998,4.02248664 C15.7711342,3.34511182 14.4171941,3.01027006 13,3.01027006 C9.29843623,3.01027006 6.02564287,5.29704939 3.15564031,10.0076611 C4.26950148,11.8358711 5.44403309,13.298991 6.68075386,14.4050326 L8.63872006,12.4470664 C8.23198597,11.7237194 8,10.8889513 8,10 C8,7.23857625 10.2385763,5 13,5 C13.8889513,5 14.7237194,5.23198597 15.4470664,5.63872006 L17.0632998,4.02248664 Z M13.9366679,7.14911858 C13.6419516,7.05234631 13.3270889,7 13,7 C11.3431458,7 10,8.34314575 10,10 C10,10.3270889 10.0523463,10.6419516 10.1491186,10.9366679 L13.9366679,7.14911858 Z M9.26006786,16.1541457 C10.4546493,16.7233915 11.700919,17.0050521 13,17.0050521 C16.7013007,17.0050521 19.9715239,14.7160569 22.8366836,10.0004979 C21.8017546,8.30055961 20.7139525,6.91660697 19.5720343,5.84217922 L20.9854484,4.42876514 C22.372213,5.74497537 23.6656603,7.43693018 24.864341,9.49709388 L25.1566706,9.99951859 L24.8647594,10.5021865 C21.6023978,16.1199359 17.6378666,19.0050521 13,19.0050521 C11.1508973,19.0050521 9.40836476,18.5468188 7.77422842,17.6399851 L9.26006786,16.1541457 Z M10.8831268,14.5310867 L12.4622712,12.9519424 C12.6367304,12.9835142 12.81644,13 13,13 C14.6568542,13 16,11.6568542 16,10 C16,9.81643998 15.9835142,9.63673043 15.9519424,9.46227119 L17.5310867,7.88312683 C17.8319303,8.52596578 18,9.2433555 18,10 C18,12.7614237 15.7614237,15 13,15 C12.2433555,15 11.5259658,14.8319303 10.8831268,14.5310867 Z" id="path-1"></path>
</svg>
