<svg xmlns="http://www.w3.org/2000/svg" viewBox="0 0 24 24">
    <path d="M4.26583952,17.8199469 C2.78136748,16.4710147 1.40139422,14.6983234 0.127625279,12.5108701 L-0.165396766,12.0076611 L0.127625279,11.5044521 C3.39561278,5.89231193 7.36267178,3.01027006 12,3.01027006 C13.9663357,3.01027006 15.8117049,3.52801012 17.5338796,4.55190683 L18.9246212,3.16116524 C19.3151455,2.77064094 19.9483105,2.77064094 20.3388348,3.16116524 C20.7293591,3.55168953 20.7293591,4.18485451 20.3388348,4.5753788 L4.0753788,20.8388348 C3.68485451,21.2293591 3.05168953,21.2293591 2.66116524,20.8388348 C2.27064094,20.4483105 2.27064094,19.8151455 2.66116524,19.4246212 L4.26583952,17.8199469 Z M16.0632998,6.02248664 C14.7711342,5.34511182 13.4171941,5.01027006 12,5.01027006 C8.29843623,5.01027006 5.02564287,7.29704939 2.15564031,12.0076611 C3.26950148,13.8358711 4.44403309,15.298991 5.68075386,16.4050326 L7.63872006,14.4470664 C7.23198597,13.7237194 7,12.8889513 7,12 C7,9.23857625 9.23857625,7 12,7 C12.8889513,7 13.7237194,7.23198597 14.4470664,7.63872006 L16.0632998,6.02248664 Z M12.9366679,9.14911858 C12.6419516,9.05234631 12.3270889,9 12,9 C10.3431458,9 9,10.3431458 9,12 C9,12.3270889 9.05234631,12.6419516 9.14911858,12.9366679 L12.9366679,9.14911858 Z M8.26006786,18.1541457 C9.45464929,18.7233915 10.700919,19.0050521 12,19.0050521 C15.7013007,19.0050521 18.9715239,16.7160569 21.8366836,12.0004979 C20.8017546,10.3005596 19.7139525,8.91660697 18.5720343,7.84217922 L19.9854484,6.42876514 C21.372213,7.74497537 22.6656603,9.43693018 23.864341,11.4970939 L24.1566706,11.9995186 L23.8647594,12.5021865 C20.6023978,18.1199359 16.6378666,21.0050521 12,21.0050521 C10.1508973,21.0050521 8.40836476,20.5468188 6.77422842,19.6399851 L8.26006786,18.1541457 Z M9.88312683,16.5310867 L11.4622712,14.9519424 C11.6367304,14.9835142 11.81644,15 12,15 C13.6568542,15 15,13.6568542 15,12 C15,11.81644 14.9835142,11.6367304 14.9519424,11.4622712 L16.5310867,9.88312683 C16.8319303,10.5259658 17,11.2433555 17,12 C17,14.7614237 14.7614237,17 12,17 C11.2433555,17 10.5259658,16.8319303 9.88312683,16.5310867 Z"/>
</svg>
