<svg viewBox="0 0 24 24" xmlns="http://www.w3.org/2000/svg">
        <circle id="path-1" cx="12" cy="12" r="8"></circle>
        <path fill="white" d="M10,11.4918835 C10,10.8674627 12.5804576,9.4892793 12.9479552,10.1972407 C13.3154528,10.9052022 13.0845472,13.8367097 12.9479552,14.4757653 C12.8113632,15.114821 14.4705983,13.7664027 14.4705983,14.6984412 C14.4705983,15.6304797 12.4676069,16.5331055 11.2777299,16.5226646 C10.0878529,16.5122237 11.7390427,12.1220917 11.7390427,11.6564794 C11.7390427,11.1908671 10,12.1163042 10,11.4918835 Z M12,9 C11.4477153,9 11,8.55228475 11,8 C11,7.44771525 11.4477153,7 12,7 C12.5522847,7 13,7.44771525 13,8 C13,8.55228475 12.5522847,9 12,9 Z" id="path-3"></path>
</svg>
