<svg viewBox="0 0 16 16" xmlns="http://www.w3.org/2000/svg">
    <circle id="path-1" cx="8" cy="8" r="8"></circle>
    <path transform="translate(6.000000, 3.000000)" fill="white" d="M0,4.49188346 C0,3.86746268 2.58045756,2.4892793 2.9479552,3.19724074 C3.31545285,3.90520219 3.08454725,6.8367097 2.9479552,7.47576534 C2.81136316,8.11482098 4.47059829,6.76640273 4.47059829,7.6984412 C4.47059829,8.63047968 2.46760686,9.53310547 1.27772987,9.5226646 C0.0878528755,9.51222373 1.73904273,5.12209171 1.73904273,4.6564794 C1.73904273,4.19086709 0,5.11630423 0,4.49188346 Z M2,2 C1.44771525,2 1,1.55228475 1,1 C1,0.44771525 1.44771525,-3.94430453e-31 2,-3.94430453e-31 C2.55228475,-3.94430453e-31 3,0.44771525 3,1 C3,1.55228475 2.55228475,2 2,2 Z" id="path-3"></path>
</svg>
