<svg xmlns="http://www.w3.org/2000/svg" viewBox="0 0 24 24">
    <path d="M20.3890873,19.8890873 L20.3890873,19.8890873 C19.998563,20.2796116 19.365398,20.2796116 18.9748737,19.8890873 L16.7609865,17.6752 C15.7321062,18.5039396 14.4239837,19 13,19 C9.6862915,19 7,16.3137085 7,13 C7,9.6862915 9.6862915,7 13,7 C16.3137085,7 19,9.6862915 19,13 C19,14.1666317 18.66704,15.2554964 18.0909638,16.1767503 L20.3890873,18.4748737 C20.7796116,18.865398 20.7796116,19.498563 20.3890873,19.8890873 Z M6.99600201,21 L4.53333333,21 C3.13421197,21 2,19.865788 2,18.4666667 L2,4.53333333 C2,3.13421197 3.13421197,2 4.53333333,2 L18.4666667,2 C19.865788,2 21,3.13421197 21,4.53333333 L21,6.99177226 L19.0268875,6.99177226 L19.0268875,3.97607944 L3.95249664,3.97607944 L3.95249664,19.0047427 L6.99600201,19.0047427 L6.99600201,21 Z M13,17 C15.209139,17 17,15.209139 17,13 C17,10.790861 15.209139,9 13,9 C10.790861,9 9,10.790861 9,13 C9,15.209139 10.790861,17 13,17 Z"/>
</svg>
