<svg width="19px" height="19px" viewBox="0 0 19 19" version="1.1" xmlns="http://www.w3.org/2000/svg" xmlns:xlink="http://www.w3.org/1999/xlink">
    <path d="M18.3890873,17.8890873 L18.3890873,17.8890873 C17.998563,18.2796116 17.365398,18.2796116 16.9748737,17.8890873 L14.7609865,15.6752 C13.7321062,16.5039396 12.4239837,17 11,17 C7.6862915,17 5,14.3137085 5,11 C5,7.6862915 7.6862915,5 11,5 C14.3137085,5 17,7.6862915 17,11 C17,12.1666317 16.66704,13.2554964 16.0909638,14.1767503 L18.3890873,16.4748737 C18.7796116,16.865398 18.7796116,17.498563 18.3890873,17.8890873 Z M4.99600201,19 L2.53333333,19 C1.13421197,19 0,17.865788 0,16.4666667 L0,2.53333333 C0,1.13421197 1.13421197,0 2.53333333,0 L16.4666667,0 C17.865788,0 19,1.13421197 19,2.53333333 L19,4.99177226 L17.0268875,4.99177226 L17.0268875,1.97607944 L1.95249664,1.97607944 L1.95249664,17.0047427 L4.99600201,17.0047427 L4.99600201,19 Z M11,15 C13.209139,15 15,13.209139 15,11 C15,8.790861 13.209139,7 11,7 C8.790861,7 7,8.790861 7,11 C7,13.209139 8.790861,15 11,15 Z" id="path-1"></path>
</svg>
