<svg xmlns="http://www.w3.org/2000/svg" viewBox="0 0 24 24">
    <path d="M15.781,12.806 C15.352,13.159 14.722,13.093 14.374,12.659 C14.026,12.224 14.091,11.585 14.52,11.232 C15.45,10.466 16,9.321 16,8.083 C16,5.844 14.209,4.028 12,4.028 C9.791,4.028 8,5.844 8,8.083 C8,8.73 8.149,9.353 8.431,9.916 C8.689,10.432 9.055,10.888 9.502,11.25 C9.932,11.6 10.002,12.238 9.657,12.675 C9.311,13.112 8.682,13.182 8.251,12.832 C7.583,12.29 7.035,11.608 6.648,10.834 C6.224,9.988 6,9.051 6,8.083 C6,4.723 8.686,2 12,2 C15.314,2 18,4.723 18,8.083 C18,9.938 17.174,11.659 15.781,12.806 M10.484,14.428 L14.347,15.477 C14.881,15.622 15.198,16.178 15.054,16.719 C14.911,17.26 14.363,17.58 13.83,17.435 L9.966,16.386 C9.432,16.241 9.116,15.685 9.259,15.144 C9.402,14.604 9.95,14.283 10.484,14.428 M11.484,18.483 L13.415,19.007 C13.949,19.152 14.265,19.708 14.123,20.249 C13.98,20.79 13.431,21.111 12.898,20.966 L10.966,20.441 C10.432,20.296 10.116,19.74 10.259,19.2 C10.402,18.659 10.95,18.338 11.484,18.483"/>
</svg>
