<svg xmlns="http://www.w3.org/2000/svg" viewBox="0 0 24 24">
    <path transform="translate(6 2)" id="a" d="M9.781 10.806a.992.992 0 0 1-1.407-.147 1.024 1.024 0 0 1 .146-1.427A4.067 4.067 0 0 0 10 6.083c0-2.239-1.791-4.055-4-4.055S2 3.844 2 6.083A4.078 4.078 0 0 0 3.502 9.25c.43.35.5.988.155 1.425a.991.991 0 0 1-1.406.157A6.071 6.071 0 0 1 .648 8.834 6.125 6.125 0 0 1 0 6.083C0 2.723 2.686 0 6 0s6 2.723 6 6.083a6.104 6.104 0 0 1-2.219 4.723m-5.297 1.622l3.863 1.049c.534.145.851.701.707 1.242a.997.997 0 0 1-1.224.716l-3.864-1.049a1.015 1.015 0 0 1-.707-1.242.999.999 0 0 1 1.225-.716m1 4.055l1.931.524c.534.145.85.701.708 1.242a.999.999 0 0 1-1.225.717l-1.932-.525a1.015 1.015 0 0 1-.707-1.241.999.999 0 0 1 1.225-.717"/>
</svg>
