<svg width="20px" height="10px" viewBox="0 0 20 10" version="1.1" xmlns="http://www.w3.org/2000/svg" xmlns:xlink="http://www.w3.org/1999/xlink">
    <path d="M8,8 L8,10 L4,10 C1.73637178,10 0,8.0300529 0,6 L0,4 C0,1.9699471 1.73637178,0 4,0 L8,0 L8,2 L4,2 C2.85075135,2 1.93914746,3.0342321 2,4 L2,6 C1.93914746,6.9657679 2.85075135,8 4,8 L8,8 Z M8,8 L8,10 L4,10 C1.73637178,10 0,8.0300529 0,6 L0,4 C0,1.9699471 1.73637178,0 4,0 L8,0 L8,2 L4,2 C2.85075135,2 1.93914746,3.0342321 2,4 L2,6 C1.93914746,6.9657679 2.85075135,8 4,8 L8,8 Z M12,8 C12.2252091,8.00078736 12.4706657,8.00058563 13,8 C13.2196347,7.9995593 13.2196347,7.9995593 14,8 C14.613525,7.99749106 15.316661,7.99685055 16,8 C17.1758137,7.99685055 18.0789227,6.96302561 18,6 L18,4 C18.0789227,3.03303758 17.1758137,1.99921264 16,2 L12,2 L12,0 L16,0 C18.2798088,0 20,1.96917157 20,4 L20,6 C20,8.02689162 18.2798088,9.99606319 16,10 C14.1906622,9.99606319 12.9835916,10 12,10 L12,8 Z M12,8 C12.2252091,8.00078736 12.4706657,8.00058563 13,8 C13.2196347,7.9995593 13.2196347,7.9995593 14,8 C14.613525,7.99749106 15.316661,7.99685055 16,8 C17.1758137,7.99685055 18.0789227,6.96302561 18,6 L18,4 C18.0789227,3.03303758 17.1758137,1.99921264 16,2 L12,2 L12,0 L16,0 C18.2798088,0 20,1.96917157 20,4 L20,6 C20,8.02689162 18.2798088,9.99606319 16,10 C14.1906622,9.99606319 12.9835916,10 12,10 L12,8 Z M7,4 L13,4 C13.5522847,4 14,4.44771525 14,5 C14,5.55228475 13.5522847,6 13,6 L7,6 C6.44771525,6 6,5.55228475 6,5 C6,4.44771525 6.44771525,4 7,4 Z" id="path-1"></path>
</svg>
