<svg viewBox="0 0 24 24" xmlns="http://www.w3.org/2000/svg">
    <path d="M10,15 L10,17 L6,17 C3.73637178,17 2,15.0300529 2,13 L2,11 C2,8.9699471 3.73637178,7 6,7 L10,7 L10,9 L6,9 C4.85075135,9 3.93914746,10.0342321 4,11 L4,13 C3.93914746,13.9657679 4.85075135,15 6,15 L10,15 Z M10,15 L10,17 L6,17 C3.73637178,17 2,15.0300529 2,13 L2,11 C2,8.9699471 3.73637178,7 6,7 L10,7 L10,9 L6,9 C4.85075135,9 3.93914746,10.0342321 4,11 L4,13 C3.93914746,13.9657679 4.85075135,15 6,15 L10,15 Z M14,15 C14.2252091,15.0007874 14.4706657,15.0005856 15,15 C15.2196347,14.9995593 15.2196347,14.9995593 16,15 C16.613525,14.9974911 17.316661,14.9968506 18,15 C19.1758137,14.9968506 20.0789227,13.9630256 20,13 L20,11 C20.0789227,10.0330376 19.1758137,8.99921264 18,9 L14,9 L14,7 L18,7 C20.2798088,7 22,8.96917157 22,11 L22,13 C22,15.0268916 20.2798088,16.9960632 18,17 C16.1906622,16.9960632 14.9835916,17 14,17 L14,15 Z M14,15 C14.2252091,15.0007874 14.4706657,15.0005856 15,15 C15.2196347,14.9995593 15.2196347,14.9995593 16,15 C16.613525,14.9974911 17.316661,14.9968506 18,15 C19.1758137,14.9968506 20.0789227,13.9630256 20,13 L20,11 C20.0789227,10.0330376 19.1758137,8.99921264 18,9 L14,9 L14,7 L18,7 C20.2798088,7 22,8.96917157 22,11 L22,13 C22,15.0268916 20.2798088,16.9960632 18,17 C16.1906622,16.9960632 14.9835916,17 14,17 L14,15 Z M9,11 L15,11 C15.5522847,11 16,11.4477153 16,12 C16,12.5522847 15.5522847,13 15,13 L9,13 C8.44771525,13 8,12.5522847 8,12 C8,11.4477153 8.44771525,11 9,11 Z" id="path-1"></path>
</svg>
