<svg xmlns="http://www.w3.org/2000/svg" viewBox="0 0 24 24">
        <path  transform="translate(2 7)" id="a" d="M8 8v2H4c-2.264 0-4-1.97-4-4V4c0-2.03 1.736-4 4-4h4v2H4C2.85 2 1.94 3.034 2 4v2c-.06.966.85 2 2 2h4zm0 0v2H4c-2.264 0-4-1.97-4-4V4c0-2.03 1.736-4 4-4h4v2H4C2.85 2 1.94 3.034 2 4v2c-.06.966.85 2 2 2h4zm4 0h2c.614-.003 1.317-.003 2 0 1.176-.003 2.079-1.037 2-2V4c.079-.967-.824-2-2-2h-4V0h4c2.28 0 4 1.97 4 4v2c0 2.027-1.72 3.996-4 4-1.81-.004-3.016 0-4 0V8zm0 0h2c.614-.003 1.317-.003 2 0 1.176-.003 2.079-1.037 2-2V4c.079-.967-.824-2-2-2h-4V0h4c2.28 0 4 1.97 4 4v2c0 2.027-1.72 3.996-4 4-1.81-.004-3.016 0-4 0V8zM7 4h6a1 1 0 0 1 0 2H7a1 1 0 1 1 0-2z"/>
</svg>
