<svg viewBox="0 0 24 24" xmlns="http://www.w3.org/2000/svg">
    <path fill="#EEF1F4" d="M10,20 C4.4771525,20 0,15.5228475 0,10 C0,4.4771525 4.4771525,0 10,0 C15.5228475,0 20,4.4771525 20,10 C20,15.5228475 15.5228475,20 10,20 Z M10,18 C14.418278,18 18,14.418278 18,10 C18,5.581722 14.418278,2 10,2 C5.581722,2 2,5.581722 2,10 C2,14.418278 5.581722,18 10,18 Z" id="path-1"></path>
    <path d="M19.4116253,13.3867894 C19.2246011,13.9064436 18.6517252,14.1760934 18.1320711,13.9890691 C17.6124169,13.8020449 17.3427671,13.229169 17.5297914,12.7095149 C17.8396319,11.8486108 18,10.9360062 18,10 C18,5.581722 14.418278,2 10,2 C9.44771525,2 9,1.55228475 9,1 C9,0.44771525 9.44771525,0 10,0 C15.5228475,0 20,4.4771525 20,10 C20,11.167721 19.7993761,12.3094088 19.4116253,13.3867894 Z" id="path-3"></path>
</svg>
