<svg width="24px" height="24px" viewBox="0 0 24 24" version="1.1" xmlns="http://www.w3.org/2000/svg" xmlns:xlink="http://www.w3.org/1999/xlink">
    <path fill="#EEF1F4" d="M12,22 C6.4771525,22 2,17.5228475 2,12 C2,6.4771525 6.4771525,2 12,2 C17.5228475,2 22,6.4771525 22,12 C22,17.5228475 17.5228475,22 12,22 Z M12,20 C16.418278,20 20,16.418278 20,12 C20,7.581722 16.418278,4 12,4 C7.581722,4 4,7.581722 4,12 C4,16.418278 7.581722,20 12,20 Z" id="path-1"></path>
    <path d="M21.4116253,15.3867894 C21.2246011,15.9064436 20.6517252,16.1760934 20.1320711,15.9890691 C19.6124169,15.8020449 19.3427671,15.229169 19.5297914,14.7095149 C19.8396319,13.8486108 20,12.9360062 20,12 C20,7.581722 16.418278,4 12,4 C11.4477153,4 11,3.55228475 11,3 C11,2.44771525 11.4477153,2 12,2 C17.5228475,2 22,6.4771525 22,12 C22,13.167721 21.7993761,14.3094088 21.4116253,15.3867894 Z" id="path-3"></path>
</svg>
