<svg version="1.1" xmlns="http://www.w3.org/2000/svg" viewBox="0 0 24 24">
    <path transform="translate(2 2)" fill="#EEF1F4" d="M10,20 C4.477,20 0,15.523 0,10 C0,4.477 4.477,0 10,0 C15.523,0 20,4.477 20,10 C20,15.523 15.523,20 10,20 Z M10,18 C14.418278,18 18,14.418278 18,10 C18,5.581722 14.418278,2 10,2 C5.581722,2 2,5.581722 2,10 C2,14.418278 5.581722,18 10,18 Z M19.412,13.387 C19.2910656,13.7231869 18.999964,13.9693187 18.6483504,14.0326799 C18.2967368,14.0960411 17.9380296,13.9670056 17.7073504,13.6941799 C17.4766712,13.4213542 17.4090656,13.0461869 17.53,12.71 C17.84,11.849
    18,10.936 18,10 C18,5.581722 14.418278,2 10,2 C9.44771525,2 9,1.55228475 9,1 C9,0.44771525 9.44771525,1.01453063e-16 10,0 C15.523,0 20,4.477 20,10 C20,11.168 19.8,12.31 19.412,13.387 Z" id="a"></path>
    <path transform="translate(11 2)" d="M10.412 13.387a1 1 0 1 1-1.882-.677c.31-.861.47-1.774.47-2.71a8 8 0 0 0-8-8 1 1 0 1 1 0-2c5.523 0 10 4.477 10 10 0 1.168-.2 2.31-.588 3.387z"/>
</svg>
