<svg xmlns="http://www.w3.org/2000/svg" viewBox="0 0 24 24">
    <path d="M16.1082,14.3564 C16.0052,14.9274 15.8462,15.2164 15.7142,15.3204 C15.2012,15.3364 14.5052,15.2134 13.0612,14.8904 C12.9212,14.8594 12.9212,14.8594 12.7812,14.8284 C12.3872,14.7414 12.0302,14.6684 11.7042,14.6074 C11.9212,13.7264 11.8692,12.6424 11.4972,11.5544 C11.1222,10.4594 10.4932,9.5664 9.7772,9.0074 C10.0172,8.7354 10.2782,8.4264 10.5702,8.0744 C10.6012,8.0374 10.6012,8.0374 10.6322,8.0004 C11.5942,6.8404 12.0882,6.2964 12.5192,5.9864 C12.7072,5.9994 13.0112,6.1384 13.4222,6.5054 C14.2122,7.2104 14.9772,8.4644 15.5532,10.1484 C16.1302,11.8354 16.2972,13.3074 16.1082,14.3564 M9.6942,14.4344 C9.3502,14.4604 9.0382,14.5264 8.7322,14.6354 L8.7262,14.6194 C8.3462,14.7514 7.5382,14.1994 7.1492,13.0624 C7.1012,12.9214 7.0642,12.7844 7.0362,12.6504 C7.0262,12.6044 7.0232,12.5614 7.0152,12.5164 C7.0012,12.4314 6.9852,12.3454 6.9782,12.2644 C6.9742,12.2124 6.9762,12.1664 6.9742,12.1164 C6.9722,12.0464 6.9672,11.9764 6.9702,11.9114 C6.9722,11.8614 6.9802,11.8184 6.9842,11.7724 C6.9912,11.7124 6.9952,11.6504 7.0052,11.5964 C7.0132,11.5524 7.0252,11.5144 7.0362,11.4734 C7.0482,11.4234 7.0592,11.3724 7.0752,11.3274 C7.0872,11.2904 7.1042,11.2604 7.1192,11.2274 C7.1362,11.1874 7.1532,11.1454 7.1732,11.1114 C7.1902,11.0834 7.2092,11.0624 7.2282,11.0374 C7.2492,11.0084 7.2702,10.9784 7.2932,10.9554 C7.3132,10.9364 7.3352,10.9254 7.3562,10.9104 C7.3832,10.8914 7.4102,10.8684 7.4402,10.8584 C7.7492,10.7504 8.0312,10.6074 8.3172,10.4074 L8.3202,10.4164 C8.4182,10.4664 8.5402,10.5484 8.6782,10.6734 C9.0632,11.0184 9.4092,11.5574 9.6292,12.2024 C9.9622,13.1734 9.8972,14.0514 9.6942,14.4344 M18.8372,9.0644 C18.4492,7.9294 17.4492,7.1814 16.3362,7.0664 C14.9432,4.6434 13.1592,3.6324 11.7562,4.1184 L11.7612,4.1314 L11.7542,4.1194 C10.9692,4.5724 10.4242,5.1484 9.1162,6.7254 C9.0862,6.7624 9.0862,6.7624 9.0552,6.7984 C7.8852,8.2094 7.2872,8.8014 6.7972,8.9794 L6.7972,8.9774 C5.2502,9.5134 4.5712,11.6324 5.2822,13.7104 C5.3712,13.9714 5.4782,14.2184 5.6002,14.4524 C5.6422,14.5324 5.6952,14.5994 5.7402,14.6764 C5.8272,14.8224 5.9102,14.9724 6.0082,15.1044 C6.0102,15.1064 6.0112,15.1094 6.0132,15.1124 L8.6632,19.5424 C8.6712,19.5564 8.6802,19.5704 8.6892,19.5834 C8.9782,20.0164 9.5612,20.1294 9.9912,19.8384 L10.1412,19.7364 C10.5302,19.4724 10.6812,18.9684 10.5012,18.5314 L9.6452,16.4474 C10.1692,16.3614 10.9842,16.4674 12.3582,16.7714 C12.4952,16.8014 12.4952,16.8014 12.6332,16.8324 C14.6392,17.2804 15.3792,17.3954 16.2742,17.2654 L16.2712,17.2464 C17.6532,16.7814 18.4232,14.9144 18.0712,12.2044 C18.8902,11.4244 19.2282,10.2074 18.8372,9.0644"/>
</svg>
