<svg width="15px" height="17px" viewBox="0 0 15 17" version="1.1" xmlns="http://www.w3.org/2000/svg" xmlns:xlink="http://www.w3.org/1999/xlink">
    <g id="Symbols" stroke="none" stroke-width="1" fill="none" fill-rule="evenodd">
        <g id="Icon-/-Not-found!" transform="translate(-4.000000, -3.000000)">
            <g id="Group" transform="translate(4.000000, 3.000000)">
                <rect id="Rectangle-3" stroke="#DBDCDB" fill="#D8D8D8" x="2.5" y="2.5" width="1" height="12"></rect>
                <rect id="Rectangle-3-Copy" stroke="#DBDCDB" fill="#D8D8D8" x="4.5" y="2.5" width="1" height="10"></rect>
                <rect id="Rectangle-3-Copy-2" stroke="#DBDCDB" fill="#D8D8D8" x="6.5" y="2.5" width="1" height="10"></rect>
                <rect id="Rectangle-3-Copy-3" stroke="#DBDCDB" fill="#D8D8D8" x="8.5" y="2.5" width="1" height="10"></rect>
                <rect id="Rectangle-3-Copy-4" stroke="#DBDCDB" fill="#D8D8D8" x="9.5" y="2.5" width="1" height="5"></rect>
                <rect id="Rectangle-3-Copy-5" stroke="#DBDCDB" fill="#D8D8D8" x="11.5" y="5.5" width="1" height="2"></rect>
                <rect id="Rectangle" stroke="#000000" fill="#D8D8D8" x="0.5" y="0.5" width="1" height="16"></rect>
                <rect id="Rectangle-Copy-3" stroke="#000000" fill="#D8D8D8" x="14.5" y="11.5" width="1" height="5"></rect>
                <rect id="Rectangle-Copy-4" stroke="#000000" fill="#D8D8D8" x="8.5" y="16.5" width="5" height="1"></rect>
                <rect id="Rectangle-Copy-5" stroke="#000000" fill="#D8D8D8" x="9.5" y="14.5" width="2" height="1"></rect>
                <rect id="Rectangle-Copy-21" stroke="#E52A2E" fill="#D8D8D8" x="4.5" y="13.5" width="2" height="1"></rect>
                <rect id="Rectangle-Copy-6" stroke="#000000" fill="#D8D8D8" x="12.5" y="12.5" width="1" height="2"></rect>
                <rect id="Rectangle-Copy-9" stroke="#000000" fill="#D8D8D8" x="14.5" y="5.5" width="1" height="1"></rect>
                <rect id="Rectangle-2" stroke="#2B9616" fill="#D8D8D8" x="6.5" y="3.5" width="1" height="2"></rect>
                <rect id="Rectangle-2-Copy" stroke="#2B9616" fill="#D8D8D8" x="5.5" y="4.5" width="1" height="1"></rect>
                <rect id="Rectangle-Copy-12" stroke="#000000" fill="#D8D8D8" x="8.5" y="4.5" width="1" height="1"></rect>
                <rect id="Rectangle-Copy-13" stroke="#9E9E9E" fill="#D8D8D8" x="11.5" y="0.5" width="1" height="3"></rect>
                <rect id="Rectangle-Copy-14" stroke="#9E9E9E" fill="#D8D8D8" x="12.5" y="1.5" width="1" height="1"></rect>
                <rect id="Rectangle-Copy-15" stroke="#9E9E9E" fill="#D8D8D8" x="13.5" y="2.5" width="1" height="1"></rect>
                <rect id="Rectangle-Copy-16" stroke="#9E9E9E" fill="#D8D8D8" x="14.5" y="3.5" width="1" height="1"></rect>
                <rect id="Rectangle-Copy-10" stroke="#000000" x="9.5" y="10.5" width="1" height="1"></rect>
                <rect id="Rectangle-Copy-26" stroke="#000000" x="12.5" y="7.5" width="1" height="1"></rect>
                <rect id="Rectangle-Copy" stroke="#000000" fill="#D8D8D8" x="1.5" y="0.5" width="9" height="1"></rect>
                <rect id="Rectangle-Copy-2" stroke="#000000" fill="#D8D8D8" x="1.5" y="16.5" width="1" height="1"></rect>
                <rect id="Rectangle-Copy-27" stroke="#42DE13" fill="#D8D8D8" x="6.5" y="4.5" width="1" height="1"></rect>
                <rect id="Rectangle-Copy-7" stroke="#000000" fill="#D8D8D8" x="11.5" y="4.5" width="3" height="1"></rect>
                <rect id="Rectangle-Copy-11" stroke="#000000" fill="#D8D8D8" x="6.5" y="6.5" width="1" height="1"></rect>
                <rect id="Rectangle-Copy-19" stroke="#E52A2E" fill="#D8D8D8" x="4.5" y="9.5" width="1" height="1"></rect>
                <rect id="Rectangle-Copy-22" stroke="#F333E0" fill="#D8D8D8" x="4.5" y="10.5" width="1" height="2"></rect>
                <rect id="Rectangle-Copy-25" stroke="#1722DD" fill="#64DEFF" x="9.5" y="7.5" width="2" height="2"></rect>
                <rect id="Rectangle-Copy-23" stroke="#F333E0" fill="#D8D8D8" x="5.5" y="11.5" width="1" height="1"></rect>
                <rect id="Rectangle-Copy-24" stroke="#F333E0" fill="#D8D8D8" x="6.5" y="12.5" width="1" height="1"></rect>
                <rect id="Rectangle-Copy-18" stroke="#E52A2E" fill="#D8D8D8" x="5.5" y="10.5" width="1" height="1"></rect>
                <rect id="Rectangle-Copy-17" stroke="#E52A2E" fill="#D8D8D8" x="7.5" y="12.5" width="1" height="1"></rect>
                <rect id="Rectangle-Copy-20" stroke="#E52A2E" fill="#D8D8D8" x="6.5" y="11.5" width="1" height="1"></rect>
            </g>
        </g>
    </g>
</svg>
