<svg viewBox="0 0 29 24" xmlns="http://www.w3.org/2000/svg">
    <path d="M26.6072397,10.1070512 C27.032594,9.75478392 27.6629808,9.81403263 28.015248,10.2393869 C28.3675153,10.6647411 28.3082665,11.2951279 27.8829123,11.6473951 L25.5835867,13.5516365 C25.1464092,13.9136954 24.5055287,13.8836441 24.1041493,13.4822647 L22.2062145,11.5843299 C21.8156902,11.1938056 21.8156902,10.5606407 22.2062145,10.1701164 C22.5967388,9.77959208 23.2299038,9.77959208 23.6204281,10.1701164 L24.9389756,11.4886639 L26.6072397,10.1070512 Z M5.99999907,16.9951552 C5.44771432,16.9951552 4.99999907,16.54744 4.99999907,15.9951552 C4.99999907,15.4428705 5.44771432,14.9951552 5.99999907,14.9951552 L17.9977521,14.9951552 C18.5500368,14.9951552 18.9977521,15.4428705 18.9977521,15.9951552 C18.9977521,16.54744 18.5500368,16.9951552 17.9977521,16.9951552 L5.99999907,16.9951552 Z M5.99999907,12.9951552 C5.44771432,12.9951552 4.99999907,12.54744 4.99999907,11.9951552 C4.99999907,11.4428705 5.44771432,10.9951552 5.99999907,10.9951552 L17.9977521,10.9951552 C18.5500368,10.9951552 18.9977521,11.4428705 18.9977521,11.9951552 C18.9977521,12.54744 18.5500368,12.9951552 17.9977521,12.9951552 L5.99999907,12.9951552 Z M5.99999907,8.99515523 C5.44771432,8.99515523 4.99999907,8.54743998 4.99999907,7.99515523 C4.99999907,7.44287048 5.44771432,6.99515523 5.99999907,6.99515523 L17.9977521,6.99515523 C18.5500368,6.99515523 18.9977521,7.44287048 18.9977521,7.99515523 C18.9977521,8.54743998 18.5500368,8.99515523 17.9977521,8.99515523 L5.99999907,8.99515523 Z" id="path-1"></path>
</svg>
