<svg xmlns="http://www.w3.org/2000/svg" viewBox="0 0 24 24">
    <path d="M21.6072397,10.1070512 C22.032594,9.75478392 22.6629808,9.81403263 23.015248,10.2393869 C23.3675153,10.6647411 23.3082665,11.2951279 22.8829123,11.6473951 L20.5835867,13.5516365 C20.1464092,13.9136954 19.5055287,13.8836441 19.1041493,13.4822647 L17.2062145,11.5843299 C16.8156902,11.1938056 16.8156902,10.5606407 17.2062145,10.1701164 C17.5967388,9.77959208 18.2299038,9.77959208 18.6204281,10.1701164 L19.9389756,11.4886639 L21.6072397,10.1070512 Z M0.999999075,16.9951552 C0.447714325,16.9951552 -9.25466338e-07,16.54744 -9.25466338e-07,15.9951552 C-9.25466338e-07,15.4428705 0.447714325,14.9951552 0.999999075,14.9951552 L12.9977521,14.9951552 C13.5500368,14.9951552 13.9977521,15.4428705 13.9977521,15.9951552 C13.9977521,16.54744 13.5500368,16.9951552 12.9977521,16.9951552 L0.999999075,16.9951552 Z M0.999999075,12.9951552 C0.447714325,12.9951552 -9.25465429e-07,12.54744 -9.25465429e-07,11.9951552 C-9.25465429e-07,11.4428705 0.447714325,10.9951552 0.999999075,10.9951552 L12.9977521,10.9951552 C13.5500368,10.9951552 13.9977521,11.4428705 13.9977521,11.9951552 C13.9977521,12.54744 13.5500368,12.9951552 12.9977521,12.9951552 L0.999999075,12.9951552 Z M0.999999075,8.99515523 C0.447714325,8.99515523 -9.25465429e-07,8.54743998 -9.25465429e-07,7.99515523 C-9.25465429e-07,7.44287048 0.447714325,6.99515523 0.999999075,6.99515523 L12.9977521,6.99515523 C13.5500368,6.99515523 13.9977521,7.44287048 13.9977521,7.99515523 C13.9977521,8.54743998 13.5500368,8.99515523 12.9977521,8.99515523 L0.999999075,8.99515523 Z"/>
</svg>
