<svg width="24px" height="11px" viewBox="0 0 24 11" version="1.1" xmlns="http://www.w3.org/2000/svg" xmlns:xlink="http://www.w3.org/1999/xlink">
    <path d="M21.6072397,4.10705117 C22.032594,3.75478392 22.6629808,3.81403263 23.015248,4.23938687 C23.3675153,4.66474111 23.3082665,5.29512788 22.8829123,5.64739513 L20.5835867,7.55163645 C20.1464092,7.91369539 19.5055287,7.88364412 19.1041493,7.48226474 L17.2062145,5.58432993 C16.8156902,5.19380564 16.8156902,4.56064066 17.2062145,4.17011637 C17.5967388,3.77959208 18.2299038,3.77959208 18.6204281,4.17011637 L19.9389756,5.48866389 L21.6072397,4.10705117 Z M0.999999075,10.9951552 C0.447714325,10.9951552 -9.25466338e-07,10.54744 -9.25466338e-07,9.99515523 C-9.25466338e-07,9.44287048 0.447714325,8.99515523 0.999999075,8.99515523 L12.9977521,8.99515523 C13.5500368,8.99515523 13.9977521,9.44287048 13.9977521,9.99515523 C13.9977521,10.54744 13.5500368,10.9951552 12.9977521,10.9951552 L0.999999075,10.9951552 Z M0.999999075,6.99515523 C0.447714325,6.99515523 -9.25465429e-07,6.54743998 -9.25465429e-07,5.99515523 C-9.25465429e-07,5.44287048 0.447714325,4.99515523 0.999999075,4.99515523 L12.9977521,4.99515523 C13.5500368,4.99515523 13.9977521,5.44287048 13.9977521,5.99515523 C13.9977521,6.54743998 13.5500368,6.99515523 12.9977521,6.99515523 L0.999999075,6.99515523 Z M0.999999075,2.99515523 C0.447714325,2.99515523 -9.25465429e-07,2.54743998 -9.25465429e-07,1.99515523 C-9.25465429e-07,1.44287048 0.447714325,0.995155228 0.999999075,0.995155228 L12.9977521,0.995155228 C13.5500368,0.995155228 13.9977521,1.44287048 13.9977521,1.99515523 C13.9977521,2.54743998 13.5500368,2.99515523 12.9977521,2.99515523 L0.999999075,2.99515523 Z" id="path-1"></path>
</svg>
