<svg width="24px" height="24px" viewBox="0 0 24 24" version="1.1" xmlns="http://www.w3.org/2000/svg" xmlns:xlink="http://www.w3.org/1999/xlink">
    <path d="M12,20 C7.581722,20 4,16.418278 4,12 C4,7.581722 7.581722,4 12,4 C16.418278,4 20,7.581722 20,12 C20,16.418278 16.418278,20 12,20 Z" id="path-1"></path>
    <path fill="white" transform="translate(10.000000, 12.000000) rotate(-270.000000) translate(-10.000000, -12.000000)" d="M14,12 C14,11.4477153 13.5522847,11 13,11 L7,11 C6.44771525,11 6,11.4477153 6,12 C6,12.5522847 6.44771525,13 7,13 L13,13 C13.5522847,13 14,12.5522847 14,12 Z" id="path-3"></path>
    <path fill="white" transform="translate(14.000000, 12.000000) rotate(-270.000000) translate(-14.000000, -12.000000)" d="M18,12 C18,11.4477153 17.5522847,11 17,11 L11,11 C10.4477153,11 10,11.4477153 10,12 C10,12.5522847 10.4477153,13 11,13 L17,13 C17.5522847,13 18,12.5522847 18,12 Z" id="path-5"></path>
</svg>
