<svg viewBox="0 0 16 16" xmlns="http://www.w3.org/2000/svg">
    <path d="M8,16 C3.581722,16 0,12.418278 0,8 C0,3.581722 3.581722,0 8,0 C12.418278,0 16,3.581722 16,8 C16,12.418278 12.418278,16 8,16 Z" id="path-1"></path>
    <path fill="white" transform="translate(6.000000, 8.000000) rotate(-270.000000) translate(-1.000000, -4.000000) " d="M5,4 C5,3.44771525 4.55228475,3 4,3 L-2,3 C-2.55228475,3 -3,3.44771525 -3,4 C-3,4.55228475 -2.55228475,5 -2,5 L4,5 C4.55228475,5 5,4.55228475 5,4 Z" id="path-3"></path>
    <path fill="white" transform="translate(10.000000, 8.000000) rotate(-270.000000) translate(-1.000000, -4.000000) " d="M5,4 C5,3.44771525 4.55228475,3 4,3 L-2,3 C-2.55228475,3 -3,3.44771525 -3,4 C-3,4.55228475 -2.55228475,5 -2,5 L4,5 C4.55228475,5 5,4.55228475 5,4 Z" id="path-5"></path>
</svg>
