<svg xmlns="http://www.w3.org/2000/svg" viewBox="0 0 24 24">
    <path id="scheduled-a" d="M12,20 C7.581722,20 4,16.418278 4,12 C4,7.581722 7.581722,4 12,4 C16.418278,4 20,7.581722 20,12 C20,16.418278 16.418278,20 12,20 Z"/>
    <path fill="#FFF" id="scheduled-b" d="M15.1220262,12.1647038 C15.6649373,12.2660249 16.0229167,12.7882783 15.9215956,13.3311894 C15.8202745,13.8741005 15.2980211,14.23208 14.75511,14.1307589 L11.3609203,13.4973162 C10.8402237,13.4001409 10.4627242,12.9456727 10.4627242,12.415986 L10.4627242,9.11103609 C10.4627242,8.55875134 10.9104395,8.11103609 11.4627242,8.11103609 C12.015009,8.11103609 12.4627242,8.55875134 12.4627242,9.11103609 L12.4627242,11.66841 L15.1220262,12.1647038 Z"/>
</svg>
