<svg xmlns="http://www.w3.org/2000/svg" xmlns:xlink="http://www.w3.org/1999/xlink" viewBox="0 0 24 24">
    <defs>
        <path id="a" d="M11.414 10l2.285 2.284c.3.3.227.861-.163 1.252-.391.39-.951.463-1.252.163L10 11.414 7.716 13.7c-.3.3-.861.227-1.252-.163-.39-.391-.463-.951-.163-1.252L8.586 10 6.3 7.716c-.3-.3-.227-.861.163-1.252.391-.39.951-.463 1.252-.163L10 8.586 12.284 6.3c.3-.3.861-.227 1.252.163.39.391.463.951.163 1.252L11.414 10zM10 20C4.477 20 0 15.523 0 10S4.477 0 10 0s10 4.477 10 10-4.477 10-10 10z"/>
    </defs>
    <g fill="none" fill-rule="evenodd" transform="rotate(-45 13.414 8.586)">
        <mask id="b" fill="#fff">
            <use xlink:href="#a"/>
        </mask>
        <use fill="#F55F69" xlink:href="#a"/>
        <g fill="#000" mask="url(#b)">
            <path d="M-2-2h26v24H-2z"/>
        </g>
    </g>
</svg>
