<svg width="19px" height="19px" viewBox="0 0 19 19" version="1.1" xmlns="http://www.w3.org/2000/svg" xmlns:xlink="http://www.w3.org/1999/xlink">
    <path d="M10,2 L10,0 L17,0 C18.3220244,0 19,0.84840045 19,2 L19,8.04520248 L17,8.04520248 L17,2 L10,2 Z M8,17.0075055 L8,19 L2.03214565,19 C0.688872541,19 2.29150032e-13,18.1547834 2.29150032e-13,17.0075055 L0,11 L2.03214565,11 L2.03214565,17.0075055 L8,17.0075055 Z M5.46666667,4 L13.5333333,4 C14.343351,4 15,4.65664903 15,5.46666667 L15,13.5333333 C15,14.343351 14.343351,15 13.5333333,15 L5.46666667,15 C4.65664903,15 4,14.343351 4,13.5333333 L4,5.46666667 C4,4.65664903 4.65664903,4 5.46666667,4 Z M6,6 L6,13 L13,13 L13,6 L6,6 Z" id="path-1"></path>
</svg>
