<svg xmlns="http://www.w3.org/2000/svg" viewBox="0 0 24 24">
    <path d="M13,4 L13,2 L20,2 C21.3220244,2 22,2.84840045 22,4 L22,10.0452025 L20,10.0452025 L20,4 L13,4 Z M11,19.0075055 L11,21 L5.03214565,21 C3.68887254,21 3,20.1547834 3,19.0075055 L3,13 L5.03214565,13 L5.03214565,19.0075055 L11,19.0075055 Z M8.46666667,6 L16.5333333,6 C17.343351,6 18,6.65664903 18,7.46666667 L18,15.5333333 C18,16.343351 17.343351,17 16.5333333,17 L8.46666667,17 C7.65664903,17 7,16.343351 7,15.5333333 L7,7.46666667 C7,6.65664903 7.65664903,6 8.46666667,6 Z M9,8 L9,15 L16,15 L16,8 L9,8 Z"/>
</svg>
