<svg viewBox="0 0 24 24" xmlns="http://www.w3.org/2000/svg">
    <path d="M5,17.9636186 L5.25128472,17.9636186 C6.53025619,17.9636186 7.06861833,17.9636186 7.50182715,17.9636186 C7.43342312,17.6652906 7.38943692,17.4416209 7.35788918,17.2068679 C7.11512688,15.4004261 7.99607982,14.1569328 10.1903153,14.1841874 C12.3798961,14.2113843 13.2055137,15.4783712 12.8664254,17.2605808 C12.8227097,17.4903454 12.7667604,17.7110788 12.6828848,18.0046235 C13.2975237,18.0048778 14.1358337,18.0048778 15.1978149,18.0046235 L15.1803638,14.2508644 C15.1803638,13.2824379 15.9717003,12.8782036 16.7670489,13.0628759 C16.9330987,13.1014311 17.0988899,13.1596611 17.3119582,13.2469755 C17.4151046,13.2892445 17.7735751,13.4433936 17.8022773,13.4555041 C18.0392663,13.5554984 18.2142261,13.6215101 18.3730584,13.6683532 C18.9669471,13.843504 18.9984347,13.8195648 18.9999952,12.5734602 C19.001582,11.3062509 18.93569,11.253068 18.3147595,11.3961704 C18.1648788,11.4307125 18.0026672,11.4797598 17.7691552,11.5588503 C17.7173129,11.5764093 17.6439599,11.6015861 17.5157465,11.6455327 C17.4108537,11.6812735 17.3306134,11.7077913 17.2526511,11.7320632 C17.0236906,11.8033452 16.8379617,11.8477279 16.6502297,11.8662046 C15.8496367,11.9449996 15.1803638,11.4395143 15.1803638,10.555804 L15.1803638,7 L5,7 L5,17.9636186 Z M17.1803638,18.2103214 C17.1803638,19.1779813 16.3970411,19.9636186 15.429286,19.9636186 L11.7400342,19.9636186 C10.8402233,19.9636186 10.4344841,19.2627409 10.5093236,18.5042821 C10.5258617,18.3366764 10.5615506,18.1663682 10.618287,17.9531739 C10.6494856,17.8359412 10.8139719,17.2657215 10.7598466,17.4551473 C10.8285599,17.214667 10.8715607,17.0450186 10.9016712,16.886761 C11.0252707,16.2371364 10.9974002,16.1943665 10.1654752,16.1840332 C9.30470804,16.1733416 9.24777538,16.2537039 9.34007031,16.9404886 C9.36266418,17.108614 9.3982092,17.2871899 9.45809582,17.5464255 C9.64086569,18.3375951 9.63262976,18.298692 9.64748233,18.559107 C9.68924898,19.2914154 9.30797441,19.9636186 8.42887164,19.9636186 L4.75107782,19.9636186 C3.78332267,19.9636186 3,19.1779813 3,18.2103214 L3,6.91709242 C3,5.96678095 3.74126572,5 4.75107782,5 L15.429286,5 C16.3970411,5 17.1803638,5.78563731 17.1803638,6.75329718 L17.1803638,9.64676139 C17.4457967,9.55780135 17.6507954,9.49676371 17.8656047,9.44725784 C19.7466556,9.01374273 21.0031844,10.0279126 20.9999936,12.5759647 C20.9967724,15.1482512 19.6898507,16.1418698 17.8073059,15.5866661 C17.6062683,15.5273757 17.4102315,15.4563761 17.1803638,15.3627625 L17.1803638,18.2103214 Z" id="path-1"></path>
</svg>
