<svg xmlns="http://www.w3.org/2000/svg" viewBox="0 0 24 24">
    <path transform="translate(3 5)" id="a" d="M2 12.964h2.501a8.098 8.098 0 0 1-.143-.757c-.243-1.807.638-3.05 2.832-3.023 2.19.027 3.016 1.294 2.676 3.077-.043.23-.1.45-.183.744h2.515L12.18 9.25c0-.969.792-1.373 1.587-1.188.166.038.332.097.545.184.103.042.462.196.49.209.237.1.412.166.571.212.594.176.625.152.627-1.095.002-1.267-.064-1.32-.685-1.177-.15.035-.312.084-.546.163l-.253.087c-.105.035-.185.062-.263.086a2.978 2.978 0 0 1-.603.134c-.8.079-1.47-.426-1.47-1.31V2H2v10.964zm12.18.246c0 .968-.783 1.754-1.75 1.754H8.74c-.9 0-1.306-.701-1.23-1.46.016-.167.052-.338.108-.55.031-.118.196-.688.142-.499.069-.24.112-.41.142-.568.123-.65.095-.693-.737-.703-.86-.01-.917.07-.825.756.023.169.058.347.118.606.183.792.175.753.19 1.013.041.732-.34 1.405-1.22 1.405H1.752A1.752 1.752 0 0 1 0 13.21V1.917C0 .967.741 0 1.751 0H12.43c.968 0 1.751.786 1.751 1.753v2.894c.266-.09.47-.15.686-.2 1.88-.433 3.137.58 3.134 3.129-.003 2.572-1.31 3.566-3.193 3.01a6.52 6.52 0 0 1-.627-.223v2.847z"/>
</svg>
