<svg viewBox="0 0 18 15" xmlns="http://www.w3.org/2000/svg">
    <path d="M2,12.9636186 L2.25128472,12.9636186 C3.53025619,12.9636186 4.06861833,12.9636186 4.50182715,12.9636186 C4.43342312,12.6652906 4.38943692,12.4416209 4.35788918,12.2068679 C4.11512688,10.4004261 4.99607982,9.15693282 7.19031532,9.18418745 C9.37989607,9.21138426 10.2055137,10.4783712 9.86642537,12.2605808 C9.82270969,12.4903454 9.76676036,12.7110788 9.68288481,13.0046235 C10.2975237,13.0048778 11.1358337,13.0048778 12.1978149,13.0046235 L12.1803638,9.2508644 C12.1803638,8.28243789 12.9717003,7.87820364 13.7670489,8.06287592 C13.9330987,8.10143109 14.0988899,8.15966107 14.3119582,8.24697553 C14.4151046,8.28924447 14.7735751,8.4433936 14.8022773,8.4555041 C15.0392663,8.55549838 15.2142261,8.62151013 15.3730584,8.66835324 C15.9669471,8.84350405 15.9984347,8.81956484 15.9999952,7.5734602 C16.001582,6.30625086 15.93569,6.25306804 15.3147595,6.39617035 C15.1648788,6.43071251 15.0026672,6.47975976 14.7691552,6.5588503 C14.7173129,6.5764093 14.6439599,6.60158605 14.5157465,6.64553271 C14.4108537,6.6812735 14.3306134,6.7077913 14.2526511,6.73206321 C14.0236906,6.80334521 13.8379617,6.84772787 13.6502297,6.8662046 C12.8496367,6.94499956 12.1803638,6.43951434 12.1803638,5.55580398 L12.1803638,2 L2,2 L2,12.9636186 Z M14.1803638,13.2103214 C14.1803638,14.1779813 13.3970411,14.9636186 12.429286,14.9636186 L8.74003418,14.9636186 C7.84022333,14.9636186 7.43448414,14.2627409 7.50932358,13.5042821 C7.52586174,13.3366764 7.56155058,13.1663682 7.618287,12.9531739 C7.64948561,12.8359412 7.81397191,12.2657215 7.75984663,12.4551473 C7.82855988,12.214667 7.87156071,12.0450186 7.90167124,11.886761 C8.02527069,11.2371364 7.99740019,11.1943665 7.16547521,11.1840332 C6.30470804,11.1733416 6.24777538,11.2537039 6.34007031,11.9404886 C6.36266418,12.108614 6.3982092,12.2871899 6.45809582,12.5464255 C6.64086569,13.3375951 6.63262976,13.298692 6.64748233,13.559107 C6.68924898,14.2914154 6.30797441,14.9636186 5.42887164,14.9636186 L1.75107782,14.9636186 C0.78332267,14.9636186 0,14.1779813 0,13.2103214 L0,1.91709242 C0,0.966780955 0.741265719,0 1.75107782,0 L12.429286,0 C13.3970411,0 14.1803638,0.785637306 14.1803638,1.75329718 L14.1803638,4.64676139 C14.4457967,4.55780135 14.6507954,4.49676371 14.8656047,4.44725784 C16.7466556,4.01374273 18.0031844,5.02791263 17.9999936,7.57596471 C17.9967724,10.1482512 16.6898507,11.1418698 14.8073059,10.5866661 C14.6062683,10.5273757 14.4102315,10.4563761 14.1803638,10.3627625 L14.1803638,13.2103214 Z" id="path-1"></path>
</svg>
