<svg width="15px" height="16px" viewBox="0 0 15 16" version="1.1" xmlns="http://www.w3.org/2000/svg" xmlns:xlink="http://www.w3.org/1999/xlink">
    <!-- Generator: Sketch 50.2 (55047) - http://www.bohemiancoding.com/sketch -->
    <desc>Created with Sketch.</desc>
    <defs>
        <path d="M13,9 L10,9 C9.448,9 9,9.448 9,10 L9,14 L2,14 L2,2 L13,2 L13,9 Z M14,0 L1,0 C0.448,0 0,0.448 0,1 L0,15 C0,15.552 0.448,16 1,16 L9.002,16 L15,9 L15,1 C15,0.448 14.552,0 14,0 Z M5,4 L9,4 C9.552,4 10,4.448 10,5 C10,5.552 9.552,6 9,6 L5,6 C4.448,6 4,5.552 4,5 C4,4.448 4.448,4 5,4 Z M5,8 L7,8 C7.552,8 8,8.448 8,9 C8,9.552 7.552,10 7,10 L5,10 C4.448,10 4,9.552 4,9 C4,8.448 4.448,8 5,8 Z" id="path-1"></path>
    </defs>
    <g id="Symbols" stroke="none" stroke-width="1" fill="none" fill-rule="evenodd">
        <g id="Icon-/-Menu-/-Reports" transform="translate(-5.000000, -4.000000)">
            <g id="Shape-/-Fill" transform="translate(5.000000, 4.000000)">
                <mask id="mask-2" fill="white">
                    <use xlink:href="#path-1"></use>
                </mask>
                <use id="Mask" fill="#010202" xlink:href="#path-1"></use>
                <g id="Colors-/-Grey-/-swatch-D25" mask="url(#mask-2)" fill="#42566E">
                    <g transform="translate(-5.000000, -4.000000)">
                        <rect x="0" y="0" width="24" height="24"></rect>
                    </g>
                </g>
            </g>
        </g>
    </g>
</svg>
