<svg width="19px" height="18px" viewBox="0 0 19 18" version="1.1" xmlns="http://www.w3.org/2000/svg" xmlns:xlink="http://www.w3.org/1999/xlink">
    <path d="M3.73972918,5.86465337 L5.27347717,5.0285202 C5.75838619,4.76416875 6.36578181,4.94296598 6.63013326,5.427875 C6.89448472,5.91278401 6.71568748,6.52017964 6.23077847,6.78453109 C3.95253618,8.03944535 2.59267107,8.79301519 2.15118314,9.04524061 C1.48895124,9.42357875 0.812156287,9.12215475 0.739755391,8.47246168 C0.691488127,8.03933297 0.551836447,6.43186541 0.320800349,3.65005901 C0.288020466,3.09874792 0.708373068,2.62524862 1.25968416,2.59246874 C1.81099526,2.55968886 2.28449455,2.98004146 2.31727444,3.53135256 L2.35949118,4.24137836 C3.94906052,1.69453619 6.7766402,0 10,0 C14.9705627,0 19,4.02943725 19,9 C19,13.9705627 14.9705627,18 10,18 C8.24183125,18 6.55615187,17.4939221 5.11139287,16.5576864 C4.6479148,16.2573424 4.51566853,15.6381422 4.81601255,15.1746642 C5.11635656,14.7111861 5.7355567,14.5789398 6.19903477,14.8792839 C7.3222702,15.6071652 8.63075163,16 10,16 C13.8659932,16 17,12.8659932 17,9 C17,5.13400675 13.8659932,2 10,2 C7.26119386,2 4.88975753,3.57289717 3.73972918,5.86465337 Z" id="path-1"></path>
</svg>
