<svg viewBox="0 0 24 24" xmlns="http://www.w3.org/2000/svg">
    <path d="M6.73972918,8.86465337 L8.27347717,8.0285202 C8.75838619,7.76416875 9.36578181,7.94296598 9.63013326,8.427875 C9.89448472,8.91278401 9.71568748,9.52017964 9.23077847,9.78453109 C6.95253618,11.0394453 5.59267107,11.7930152 5.15118314,12.0452406 C4.48895124,12.4235788 3.81215629,12.1221548 3.73975539,11.4724617 C3.69148813,11.039333 3.55183645,9.43186541 3.32080035,6.65005901 C3.28802047,6.09874792 3.70837307,5.62524862 4.25968416,5.59246874 C4.81099526,5.55968886 5.28449455,5.98004146 5.31727444,6.53135256 L5.35949118,7.24137836 C6.94906052,4.69453619 9.7766402,3 13,3 C17.9705627,3 22,7.02943725 22,12 C22,16.9705627 17.9705627,21 13,21 C11.2418312,21 9.55615187,20.4939221 8.11139287,19.5576864 C7.6479148,19.2573424 7.51566853,18.6381422 7.81601255,18.1746642 C8.11635656,17.7111861 8.7355567,17.5789398 9.19903477,17.8792839 C10.3222702,18.6071652 11.6307516,19 13,19 C16.8659932,19 20,15.8659932 20,12 C20,8.13400675 16.8659932,5 13,5 C10.2611939,5 7.88975753,6.57289717 6.73972918,8.86465337 Z" id="path-1"></path>
</svg>
