<svg width="16px" height="16px" viewBox="0 0 16 16" version="1.1" xmlns="http://www.w3.org/2000/svg" xmlns:xlink="http://www.w3.org/1999/xlink">
    <defs>
        <path d="M8,16 C3.581722,16 0,12.418278 0,8 C0,3.581722 3.581722,0 8,0 C12.418278,0 16,3.581722 16,8 C16,12.418278 12.418278,16 8,16 Z" id="path-1"></path>
        <path d="M5.12202616,4.16470381 C5.66493727,4.26602492 6.0229167,4.78827832 5.9215956,5.33118943 C5.8202745,5.87410055 5.2980211,6.23207998 4.75510998,6.13075888 L1.36092031,5.49731625 C0.840223665,5.40014093 0.462724205,4.9456727 0.462724205,4.41598596 L0.462724205,1.11103609 C0.462724205,0.558751335 0.910439455,0.111036085 1.4627242,0.111036085 C2.01500895,0.111036085 2.4627242,0.558751335 2.4627242,1.11103609 L2.4627242,3.66841003 L5.12202616,4.16470381 Z" id="path-3"></path>
    </defs>
    <g id="Symbols" stroke="none" stroke-width="1" fill="none" fill-rule="evenodd">
        <g id="Icon-/-Status-/-Scheduled" transform="translate(-4.000000, -4.000000)">
            <g id="Colors-/-Dark-Blue-/-primary-800" transform="translate(4.000000, 4.000000)">
                <mask id="mask-2" fill="white">
                    <use xlink:href="#path-1"></use>
                </mask>
                <use id="Mask" fill="#FF7F5A" xlink:href="#path-1"></use>
                <g id="Colors-/-Grey-/-swatch-D25" mask="url(#mask-2)" fill="#42566E">
                    <g transform="translate(-4.000000, -4.000000)">
                        <rect x="0" y="0" width="24" height="24"></rect>
                    </g>
                </g>
            </g>
            <g id="Colors-/-White" transform="translate(10.000000, 8.000000)">
                <mask id="mask-4" fill="white">
                    <use xlink:href="#path-3"></use>
                </mask>
                <use id="Mask" fill="#979797" fill-rule="nonzero" xlink:href="#path-3"></use>
                <g mask="url(#mask-4)" fill="#FFFFFF" id="Rectangle-10-Copy-33">
                    <rect x="0" y="0" width="7" height="7"></rect>
                </g>
            </g>
        </g>
    </g>
</svg>
