<svg viewBox="0 0 18 18"  xmlns="http://www.w3.org/2000/svg">
    <path d="M14.0845,12.4292 L17.6575,16.0022 C18.1145,16.4592 18.1145,17.2002 17.6575,17.6572 C17.2005,18.1142 16.4595,18.1142 16.0015,17.6572 L12.4295,14.0842 C11.1345,15.0392 9.5345,15.6042 7.8015,15.6042 C3.4935,15.6042 0.0005,12.1112 0.0005,7.8022 C0.0005,3.4932 3.4935,0.0002 7.8015,0.0002 C12.1105,0.0002 15.6045,3.4932 15.6045,7.8022 C15.6045,9.5342 15.0395,11.1352 14.0845,12.4292 M7.8015,13.2632 C10.8185,13.2632 13.2635,10.8182 13.2635,7.8022 C13.2635,4.7852 10.8185,2.3412 7.8015,2.3412 C4.7855,2.3412 2.3405,4.7852 2.3405,7.8022 C2.3405,10.8182 4.7855,13.2632 7.8015,13.2632" id="path-1"></path>
</svg>
