<svg xmlns="http://www.w3.org/2000/svg" xmlns:xlink="http://www.w3.org/1999/xlink" viewBox="0 0 24 24">
    <path id="a" d="M13 18.005c-4.637 0-8.604-2.882-11.872-8.494l-.293-.503.293-.504C4.396 2.892 8.363.01 13 .01s8.602 2.88 11.864 8.487l.293.503-.292.502C21.602 15.12 17.638 18.005 13 18.005zm0-2c3.701 0 6.972-2.289 9.837-7.005C19.972 4.295 16.702 2.01 13 2.01S6.026 4.297 3.156 9.008c2.87 4.71 6.142 6.997 9.844 6.997zM13 14a5 5 0 1 1 0-10 5 5 0 0 1 0 10zm0-2a3 3 0 1 0 0-6 3 3 0 0 0 0 6z"/>
</svg>
