<svg viewBox="0 0 26 24" xmlns="http://www.w3.org/2000/svg">
    <path d="M12,20.0050521 C7.36267178,20.0050521 3.39561278,17.1230103 0.127625279,11.5108701 L-0.165396766,11.0076611 L0.127625279,10.5044521 C3.39561278,4.89231193 7.36267178,2.01027006 12,2.01027006 C16.6373181,2.01027006 20.6018398,4.88985709 23.864341,10.4970939 L24.1566706,10.9995186 L23.8647594,11.5021865 C20.6023978,17.1199359 16.6378666,20.0050521 12,20.0050521 Z M12,18.0050521 C15.7013007,18.0050521 18.9715239,15.7160569 21.8366836,11.0004979 C18.971752,6.29466091 15.7016447,4.01027006 12,4.01027006 C8.29843623,4.01027006 5.02564287,6.29704939 2.15564031,11.0076611 C5.02564287,15.7182728 8.29843623,18.0050521 12,18.0050521 Z M12,16 C9.23857625,16 7,13.7614237 7,11 C7,8.23857625 9.23857625,6 12,6 C14.7614237,6 17,8.23857625 17,11 C17,13.7614237 14.7614237,16 12,16 Z M12,14 C13.6568542,14 15,12.6568542 15,11 C15,9.34314575 13.6568542,8 12,8 C10.3431458,8 9,9.34314575 9,11 C9,12.6568542 10.3431458,14 12,14 Z" id="path-1"></path>
</svg>
