<svg xmlns="http://www.w3.org/2000/svg" viewBox="0 0 16 16">
	<path class="st0" d="M15.672,7.678c-2.082-3.36-4.665-5.059-7.666-5.059S2.421,4.317,0.328,7.678L0.125,8l0.203,0.323
		c2.093,3.361,4.677,5.058,7.678,5.058s5.584-1.696,7.666-5.058L15.875,8L15.672,7.678z M8.006,11.588
		c-1.981,0-3.587-1.606-3.587-3.588c0-1.98,1.606-3.587,3.587-3.587c1.982,0,3.587,1.606,3.587,3.587
		C11.593,9.981,9.988,11.588,8.006,11.588z M10.398,8c0,1.32-1.071,2.391-2.393,2.391c-1.321,0-2.392-1.07-2.392-2.391
		s1.071-2.392,2.392-2.392C9.327,5.608,10.398,6.68,10.398,8z"/>
</svg>
