<svg width="26px" height="18px" viewBox="0 0 26 18" version="1.1" xmlns="http://www.w3.org/2000/svg" xmlns:xlink="http://www.w3.org/1999/xlink">
    <path d="M13,18.0050521 C8.36267178,18.0050521 4.39561278,15.1230103 1.12762528,9.51087012 L0.834603234,9.0076611 L1.12762528,8.50445209 C4.39561278,2.89231193 8.36267178,0.0102700598 13,0.0102700598 C17.6373181,0.0102700598 21.6018398,2.88985709 24.864341,8.49709388 L25.1566706,8.99951859 L24.8647594,9.50218646 C21.6023978,15.1199359 17.6378666,18.0050521 13,18.0050521 Z M13,16.0050521 C16.7013007,16.0050521 19.9715239,13.7160569 22.8366836,9.00049789 C19.971752,4.29466091 16.7016447,2.01027006 13,2.01027006 C9.29843623,2.01027006 6.02564287,4.29704939 3.15564031,9.00766111 C6.02564287,13.7182728 9.29843623,16.0050521 13,16.0050521 Z M13,14 C10.2385763,14 8,11.7614237 8,9 C8,6.23857625 10.2385763,4 13,4 C15.7614237,4 18,6.23857625 18,9 C18,11.7614237 15.7614237,14 13,14 Z M13,12 C14.6568542,12 16,10.6568542 16,9 C16,7.34314575 14.6568542,6 13,6 C11.3431458,6 10,7.34314575 10,9 C10,10.6568542 11.3431458,12 13,12 Z" id="path-1"></path>
</svg>
