<svg width="20px" height="20px" viewBox="0 0 20 20" version="1.1" xmlns="http://www.w3.org/2000/svg" xmlns:xlink="http://www.w3.org/1999/xlink">
    <defs>
        <path d="M2.03259931,3.82769038 C2.28402495,2.61056168 2.79973324,1.63343019 3.66258035,0.74201199 L2.95973138,0.0520200155 C1.96117156,1.08915081 1.3626071,2.214852 1.07403903,3.62912127 L2.03259931,3.82769038 M7.86967427,4.990534 L0.904041004,6.10623531 C1.42689207,9.04477256 3.50543932,11.2776037 6.3796916,11.976167 C9.2753722,12.6804446 12.1010536,11.6218854 13.7996053,9.1761996 C15.5095854,6.710514 15.5410136,3.6091215 13.8653188,1.04915127 L7.86967427,4.990534" id="path-1"></path>
        <path d="M15.5610366,16.180462 L16.6724523,17.4218761 C13.1010653,20.6232675 7.93683961,20.8675503 4.07259884,18.0132978 C0.214072292,15.1661881 -1.06876993,10.160532 0.942635246,5.80343985 C2.95404042,1.45206189 7.60398634,-0.816483154 12.2782177,0.269218504 C16.9538776,1.36063438 20.1166979,5.4477297 19.9966993,10.2419596 L18.3281473,10.2005316 C18.4267176,6.20486375 15.791034,2.80347474 11.8967935,1.89491388 C8.00683879,0.987781574 4.13545525,2.87490248 2.46118901,6.50628881 C0.784065662,10.1333895 1.85405322,14.303341 5.06687299,16.6761705 C8.28254987,19.0504286 12.5839284,18.8475738 15.5610366,16.180462" id="path-3"></path>
    </defs>
    <g id="Symbols" stroke="none" stroke-width="1" fill="none" fill-rule="evenodd">
        <g id="Icon-/-Sociomantic" transform="translate(-2.000000, -2.000000)">
            <g id="Shape-/-Fill" transform="translate(4.000000, 7.000000)">
                <mask id="mask-2" fill="white">
                    <use xlink:href="#path-1"></use>
                </mask>
                <use id="Mask" fill="#000000" xlink:href="#path-1"></use>
                <g id="Colors-/-Grey-/-swatch-D25" mask="url(#mask-2)" fill="#42566E">
                    <g transform="translate(-4.000000, -7.000000)">
                        <rect x="0" y="0" width="24" height="24"></rect>
                    </g>
                </g>
            </g>
            <g id="Shape-/-Fill" transform="translate(2.000000, 2.000000)">
                <mask id="mask-4" fill="white">
                    <use xlink:href="#path-3"></use>
                </mask>
                <use id="Mask" fill="#D8D8D8" xlink:href="#path-3"></use>
                <g id="Colors-/-Grey-/-swatch-L90" mask="url(#mask-4)" fill="#EEF1F4">
                    <g transform="translate(-2.000000, -2.000000)">
                        <rect x="0" y="0" width="24" height="24"></rect>
                    </g>
                </g>
            </g>
        </g>
    </g>
</svg>
