<svg viewBox="0 0 24 24" xmlns="http://www.w3.org/2000/svg">
    <path d="M6.03259931,10.8276904 C6.28402495,9.61056168 6.79973324,8.63343019 7.66258035,7.74201199 L6.95973138,7.05202002 C5.96117156,8.08915081 5.3626071,9.214852 5.07403903,10.6291213 L6.03259931,10.8276904 M11.8696743,11.990534 L4.904041,13.1062353 C5.42689207,16.0447726 7.50543932,18.2776037 10.3796916,18.976167 C13.2753722,19.6804446 16.1010536,18.6218854 17.7996053,16.1761996 C19.5095854,13.710514 19.5410136,10.6091215 17.8653188,8.04915127 L11.8696743,11.990534" id="path-1"></path>
    <path d="M17.5610366,18.180462 L18.6724523,19.4218761 C15.1010653,22.6232675 9.93683961,22.8675503 6.07259884,20.0132978 C2.21407229,17.1661881 0.93123007,12.160532 2.94263525,7.80343985 C4.95404042,3.45206189 9.60398634,1.18351685 14.2782177,2.2692185 C18.9538776,3.36063438 22.1166979,7.4477297 21.9966993,12.2419596 L20.3281473,12.2005316 C20.4267176,8.20486375 17.791034,4.80347474 13.8967935,3.89491388 C10.0068388,2.98778157 6.13545525,4.87490248 4.46118901,8.50628881 C2.78406566,12.1333895 3.85405322,16.303341 7.06687299,18.6761705 C10.2825499,21.0504286 14.5839284,20.8475738 17.5610366,18.180462" id="path-3"></path>
</svg>
