<svg xmlns="http://www.w3.org/2000/svg" xmlns:xlink="http://www.w3.org/1999/xlink" viewBox="0 0 24 24">
    <path id="a" d="M4.033 8.828a5.99 5.99 0 0 1 1.63-3.086l-.703-.69C3.96 6.089 3.363 7.215 3.074 8.629l.959.199M9.87 9.99l-6.966 1.115c.523 2.939 2.601 5.172 5.476 5.87 2.895.704 5.721-.354 7.42-2.8 1.71-2.465 1.741-5.567.065-8.127L9.87 9.991m5.691 6.19l1.111 1.24c-3.57 3.202-8.735 3.447-12.6.592-3.858-2.847-5.14-7.852-3.13-12.21C2.955 1.453 7.605-.817 12.279.27c4.676 1.092 7.839 5.179 7.719 9.973l-1.669-.041c.099-3.996-2.537-7.398-6.431-8.306-3.89-.907-7.762.98-9.436 4.611-1.677 3.627-.607 7.797 2.606 10.17 3.216 2.374 7.517 2.172 10.494-.496"/>
</svg>
