<svg xmlns="http://www.w3.org/2000/svg" viewBox="0 0 24 24">
    <path transform="translate(2 2)" id="a" d="M13.768 12.732a2.256 2.256 0 0 1 .655-2.004l2.709-2.625-3.744-.54a2.276 2.276 0 0 1-1.714-1.239L10 2.952 8.326 6.324A2.276 2.276 0 0 1 6.61 7.563l-3.743.54 2.709 2.625c.536.52.781 1.27.655 2.004l-.64 3.707 3.348-1.75a2.289 2.289 0 0 1 2.12 0l3.348 1.75-.64-3.707zm-8.962 6.164a.913.913 0 0 1-1.23-.38.901.901 0 0 1-.091-.575l.951-5.515a.451.451 0 0 0-.13-.4L.275 8.12a.902.902 0 0 1-.017-1.28.913.913 0 0 1 .52-.265l5.57-.805a.455.455 0 0 0 .343-.247L9.183.505a.913.913 0 0 1 1.634 0l2.49 5.018a.455.455 0 0 0 .343.247l5.57.805a.906.906 0 0 1 .505 1.545l-4.03 3.905a.451.451 0 0 0-.131.401l.951 5.515a.906.906 0 0 1-.744 1.046.915.915 0 0 1-.578-.091l-4.981-2.604a.458.458 0 0 0-.424 0l-4.982 2.604z"/>
</svg>
