<svg xmlns="http://www.w3.org/2000/svg" xmlns:xlink="http://www.w3.org/1999/xlink" viewBox="0 0 24 24">
    <path id="a" d="M4.806 18.896a.913.913 0 0 1-1.23-.38.901.901 0 0 1-.091-.575l.951-5.515a.451.451 0 0 0-.13-.4L.275 8.12a.902.902 0 0 1-.017-1.28.913.913 0 0 1 .52-.265l5.57-.805a.455.455 0 0 0 .343-.247L9.183.505a.913.913 0 0 1 1.634 0l2.49 5.018a.455.455 0 0 0 .343.247l5.57.805a.906.906 0 0 1 .505 1.545l-4.03 3.905a.451.451 0 0 0-.131.401l.951 5.515a.906.906 0 0 1-.744 1.046.915.915 0 0 1-.578-.091l-4.981-2.604a.458.458 0 0 0-.424 0l-4.982 2.604z"/>
</svg>
