<svg width="20px" height="19px" viewBox="0 0 20 19" version="1.1" xmlns="http://www.w3.org/2000/svg" xmlns:xlink="http://www.w3.org/1999/xlink">
    <path d="M4.80640853,18.8957962 C4.36115458,19.128526 3.81044105,18.958329 3.57635765,18.5156505 C3.48314419,18.3393737 3.45097821,18.1374625 3.48484015,17.9411753 L4.43624253,12.4261649 C4.46158092,12.2792856 4.41260192,12.1294152 4.30526694,12.0253947 L0.275060349,8.11964264 C-0.0851575689,7.77054786 -0.0925289189,7.19722528 0.258598001,6.83909093 C0.398417746,6.69647986 0.581624895,6.60367156 0.779855279,6.57503357 L6.34946262,5.7704044 C6.49779589,5.74897503 6.62602532,5.65635002 6.69236201,5.52271487 L9.18316604,0.50499264 C9.40579392,0.0565103063 9.95195148,-0.12762552 10.4030429,0.0937137321 C10.5826705,0.181852145 10.7280636,0.326404642 10.8167157,0.50499264 L13.3075197,5.52271487 C13.3738564,5.65635002 13.5020858,5.74897503 13.6504191,5.7704044 L19.2200264,6.57503357 C19.7178362,6.64695112 20.0627513,7.10647143 19.9904149,7.60140106 C19.9616108,7.79848459 19.8682617,7.98063127 19.7248214,8.11964264 L15.6946148,12.0253947 C15.5872798,12.1294152 15.5383008,12.2792856 15.5636392,12.4261649 L16.5150416,17.9411753 C16.6000776,18.4341051 16.2670889,18.90224 15.7712912,18.9867841 C15.5738614,19.0204501 15.3707754,18.9884704 15.1934732,18.8957962 L10.2118642,16.2919615 C10.0791908,16.2226145 9.92069087,16.2226145 9.7880175,16.2919615 L4.80640853,18.8957962 Z" id="path-1"></path>
</svg>
