<svg xmlns="http://www.w3.org/2000/svg" viewBox="0 0 24 24">
    <path d="M6.80640853,20.8957962 C6.36115458,21.128526 5.81044105,20.958329 5.57635765,20.5156505 C5.48314419,20.3393737 5.45097821,20.1374625 5.48484015,19.9411753 L6.43624253,14.4261649 C6.46158092,14.2792856 6.41260192,14.1294152 6.30526694,14.0253947 L2.27506035,10.1196426 C1.91484243,9.77054786 1.90747108,9.19722528 2.258598,8.83909093 C2.39841775,8.69647986 2.58162489,8.60367156 2.77985528,8.57503357 L8.34946262,7.7704044 C8.49779589,7.74897503 8.62602532,7.65635002 8.69236201,7.52271487 L11.183166,2.50499264 C11.4057939,2.05651031 11.9519515,1.87237448 12.4030429,2.09371373 C12.5826705,2.18185215 12.7280636,2.32640464 12.8167157,2.50499264 L15.3075197,7.52271487 C15.3738564,7.65635002 15.5020858,7.74897503 15.6504191,7.7704044 L21.2200264,8.57503357 C21.7178362,8.64695112 22.0627513,9.10647143 21.9904149,9.60140106 C21.9616108,9.79848459 21.8682617,9.98063127 21.7248214,10.1196426 L17.6946148,14.0253947 C17.5872798,14.1294152 17.5383008,14.2792856 17.5636392,14.4261649 L18.5150416,19.9411753 C18.6000776,20.4341051 18.2670889,20.90224 17.7712912,20.9867841 C17.5738614,21.0204501 17.3707754,20.9884704 17.1934732,20.8957962 L12.2118642,18.2919615 C12.0791908,18.2226145 11.9206909,18.2226145 11.7880175,18.2919615 L6.80640853,20.8957962 Z"/>
</svg>
