<svg xmlns="http://www.w3.org/2000/svg" viewBox="0 0 24 24">
    <path transform="translate(3 2)" id="a" d="M3.668 5.001l.878-.354a1 1 0 1 1 .736 1.86 683.52 683.52 0 0 0-3.95 1.619C.627 8.42-.009 8.039 0 7.386c.005-.437.03-1.956.078-4.559a1 1 0 1 1 1.996.126l-.03.882C3.707 1.558 6.568 0 9.47 0c4.339 0 7.965 2.78 8.97 6.755a1 1 0 1 1-1.94.49C15.721 4.163 12.9 2 9.47 2 7.23 2 4.967 3.235 3.668 5.001zm11.11 9.592l-1.113.216a1 1 0 0 1-.367-1.966c2.293-.454 3.689-.733 4.187-.836.746-.155 1.297.34 1.165.98-.088.428-.403 1.914-.946 4.46a1 1 0 0 1-1.936-.504l.152-.658C14.23 17.936 11.861 19 9.47 19 5.135 19 1.514 16.223.5 12.247a1 1 0 0 1 1.939-.494C3.225 14.838 6.044 17 9.469 17c1.975 0 3.973-.965 5.31-2.407z"/>
</svg>
