<svg width="16px" height="16px" viewBox="0 0 16 16" version="1.1" xmlns="http://www.w3.org/2000/svg" xmlns:xlink="http://www.w3.org/1999/xlink">
    <path d="M2,2 L2,14 L14,14 L14,2 L2,2 Z M2,3.90798505e-14 L14,3.90798505e-14 C15.1045695,3.88769443e-14 16,0.8954305 16,2 L16,14 C16,15.1045695 15.1045695,16 14,16 L2,16 C0.8954305,16 1.78988391e-14,15.1045695 1.77635684e-14,14 L1.77635684e-14,2 C1.76282976e-14,0.8954305 0.8954305,3.92827566e-14 2,3.90798505e-14 Z M1,8 L16,8 L16,10 L1,10 L1,8 Z M9,4 L9,15 L7,15 L7,4 L1,4 L1,1 L15,1 L15,4 L9,4 Z" id="path-1"></path>
</svg>
