<svg width="8px" height="11px" viewBox="0 0 8 11" version="1.1" xmlns="http://www.w3.org/2000/svg" xmlns:xlink="http://www.w3.org/1999/xlink">
    <path d="M6,3.92404296 L6,10 C6,10.5522847 5.55228475,11 5,11 C4.44771525,11 4,10.5522847 4,10 L4,3.92966937 L2.78765483,5.58976285 C2.4619378,6.03577503 1.83632767,6.13329351 1.39031549,5.80757649 C0.944303314,5.48185946 0.846784826,4.85624933 1.17250185,4.41023715 L4.03109196,0.495900795 C4.42195239,-0.0393138191 5.17268455,-0.156336005 5.70789916,0.234524427 C5.80764869,0.307370239 5.89555353,0.395179807 5.96850747,0.494850277 L8.83373971,4.40936172 C9.15994022,4.85502041 9.06310024,5.48073593 8.61744154,5.80693644 C8.17178285,6.13313696 7.54606734,6.03629697 7.21986682,5.59063828 L6,3.92404296 Z" id="path-1"></path>
</svg>
