<svg viewBox="0 0 24 24" xmlns="http://www.w3.org/2000/svg">
    <path d="M11,6.27982746 L8.83442956,9.55866629 C8.53005736,10.019509 7.90972811,10.1463534 7.44888539,9.84198123 C6.98804267,9.53760904 6.86119825,8.91727978 7.16557044,8.45643706 L11.1155047,2.47593537 C11.4381392,1.98744209 12.0956882,1.85298701 12.5841815,2.17562153 C12.7545981,2.30551875 12.7545981,2.30551875 12.8844953,2.47593537 L16.8344296,8.45643706 C17.1388018,8.91727978 17.0119573,9.53760904 16.5511146,9.84198123 C16.0902719,10.1463534 15.4699426,10.019509 15.1655704,9.55866629 L13,6.27982746 L13,14.9870934 C13,15.5393781 12.5522847,15.9870934 12,15.9870934 C11.4477153,15.9870934 11,15.5393781 11,14.9870934 L11,6.27982746 Z M19,20.9870934 L19,15.9870934 C19,15.4348086 19.4477153,14.9870934 20,14.9870934 C20.5522847,14.9870934 21,15.4348086 21,15.9870934 L21,22.9870934 L3,22.9870934 L3,15.9870934 C3,15.4348086 3.44771525,14.9870934 4,14.9870934 C4.55228475,14.9870934 5,15.4348086 5,15.9870934 L5,20.9870934 L19,20.9870934 Z" id="path-1"></path>
</svg>
