<svg width="18px" height="21px" viewBox="0 0 18 21" version="1.1" xmlns="http://www.w3.org/2000/svg" xmlns:xlink="http://www.w3.org/1999/xlink">
    <path d="M8,4.27982746 L5.83442956,7.55866629 C5.53005736,8.01950901 4.90972811,8.14635343 4.44888539,7.84198123 C3.98804267,7.53760904 3.86119825,6.91727978 4.16557044,6.45643706 L8.11550467,0.475935375 C8.4381392,-0.0125579071 9.09568821,-0.147012994 9.58418149,0.175621533 C9.75459811,0.305518749 9.75459811,0.305518749 9.88449533,0.475935375 L13.8344296,6.45643706 C14.1388018,6.91727978 14.0119573,7.53760904 13.5511146,7.84198123 C13.0902719,8.14635343 12.4699426,8.01950901 12.1655704,7.55866629 L10,4.27982746 L10,12.9870934 C10,13.5393781 9.55228475,13.9870934 9,13.9870934 C8.44771525,13.9870934 8,13.5393781 8,12.9870934 L8,4.27982746 Z M16,18.9870934 L16,13.9870934 C16,13.4348086 16.4477153,12.9870934 17,12.9870934 C17.5522847,12.9870934 18,13.4348086 18,13.9870934 L18,20.9870934 L0,20.9870934 L0,13.9870934 C0,13.4348086 0.44771525,12.9870934 1,12.9870934 C1.55228475,12.9870934 2,13.4348086 2,13.9870934 L2,18.9870934 L16,18.9870934 Z" id="path-1"></path>
</svg>
