<svg xmlns="http://www.w3.org/2000/svg" xmlns:xlink="http://www.w3.org/1999/xlink" viewBox="0 0 24 24">
    <defs>
        <path id="a" d="M10 20C4.477 20 0 15.523 0 10S4.477 0 10 0s10 4.477 10 10-4.477 10-10 10zM9.675 4h.836a1 1 0 0 1 .994 1.11l-.738 6.707a.764.764 0 0 1-.76.68.747.747 0 0 1-.743-.682L8.68 5.087A1 1 0 0 1 9.675 4zM10 13.75a1.25 1.25 0 1 0 0 2.5 1.25 1.25 0 0 0 0-2.5z"/>
    </defs>
    <g fill="none" fill-rule="evenodd" transform="translate(2 2)">
        <mask id="b" fill="#fff">
            <use xlink:href="#a"/>
        </mask>
        <use fill="#FFB043" xlink:href="#a"/>
        <g fill="#000" mask="url(#b)">
            <path d="M-2-2h24v24H-2z"/>
        </g>
    </g>
</svg>
