<?xml version="1.0" encoding="utf-8"?>
<!-- Generator: Adobe Illustrator 16.0.4, SVG Export Plug-In . SVG Version: 6.00 Build 0)  -->
<!DOCTYPE svg PUBLIC "-//W3C//DTD SVG 1.1//EN" "http://www.w3.org/Graphics/SVG/1.1/DTD/svg11.dtd">
<svg version="1.1" id="Layer_1" xmlns="http://www.w3.org/2000/svg" xmlns:xlink="http://www.w3.org/1999/xlink" x="0px" y="0px"
	 width="250px" height="250px" viewBox="0 0 250 250" enable-background="new 0 0 250 250" xml:space="preserve">
<g>
	<defs>
		<path id="SVGID_1_" d="M0,125c0,69.035,55.964,125,125,125s125-55.965,125-125C250,55.964,194.036,0,125,0S0,55.964,0,125"/>
	</defs>
	<clipPath id="SVGID_2_">
		<use xlink:href="#SVGID_1_"  overflow="visible"/>
	</clipPath>
	<path clip-path="url(#SVGID_2_)" fill="#B6E3F5" d="M39.379,134.371c6.722-0.932,13.271-2.666,19.794-4.522
		c-3.636-0.082-7.284-0.094-10.96,0.005c-12.104,0.324-23.238,1.345-35.048,4.421c-2.839,0.74-5.682,1.485-8.532,2.183
		C16.251,136.359,27.888,135.962,39.379,134.371"/>
	<path clip-path="url(#SVGID_2_)" fill="#B6E3F5" d="M33.178,241.164c-7.451-8.17-13.437-17.41-18.531-27.302
		c-4.375-8.499-7.803-17.421-10.191-26.696c-1.586-6.162-2.409-12.541-3.459-18.842c-0.34-2.046-0.324-4.155-0.47-6.236
		c3.456-0.568,6.927-1.045,10.363-1.72c10.614-2.08,21.28-3.944,31.803-6.449c10.11-2.407,20.091-5.419,30.072-8.371
		c2.444-0.724,4.745-2.112,6.969-3.452c1.96-1.18,2.138-2.54,0.522-4.191c-1.52-1.555-3.266-2.931-5.08-4.106
		c-11.742-7.602-24.417-13.263-37.069-18.965c-1.691-0.761-3.389-1.503-5.084-2.255c2.326-0.479,4.525-0.648,6.727-0.794
		c4.232-0.278,8.469-0.515,12.7-0.822c8.334-0.606,16.667-1.252,25.001-1.873c3.8-0.284,7.604-0.516,11.403-0.822
		c7.348-0.592,14.693-1.226,22.041-1.83c6.552-0.539,13.107-1.059,19.66-1.588c0.24-0.001,0.478-0.002,0.718-0.004
		c15.792-0.008,31.585-0.015,47.379-0.021c1.448,0.272,2.892,0.572,4.345,0.811c8.364,1.379,16.728,2.766,25.098,4.107
		c6.854,1.099,13.718,2.137,20.576,3.208c4.081,0.636,8.162,1.284,12.745,2.004c-1.19,0.59-1.894,0.958-2.612,1.293
		c-14.942,6.946-29.989,13.662-44.796,20.902c-12.364,6.047-24.615,12.395-36.608,19.19c-10.471,5.933-20.641,12.471-30.682,19.165
		c-4.032,2.688-7.567,6.301-10.947,9.88c-2.576,2.728-2.214,5.017,0.401,7.677c3.6,3.656,8.147,5.723,12.663,7.748
		c14.778,6.63,30.273,11.009,45.763,15.388c3.722,1.051,7.448,2.084,11.173,3.125c-0.203,0.139-0.394,0.299-0.609,0.411
		c-9.643,5.014-18.381,11.379-26.459,18.777c-16.951,15.521-36.848,23.595-59.344,24.867c-4.5,0.254-9.057,0.394-13.529-0.043
		c-5.073-0.496-10.13-1.477-15.109-2.639c-11.658-2.721-22.478-7.479-32.063-15.019c-0.405-0.319-0.925-0.479-1.392-0.713
		l0.016,0.03c-0.131-0.135-0.262-0.27-0.393-0.404l0.024,0.025c0.022-0.045,0.071-0.094,0.063-0.135
		c-0.014-0.087-0.054-0.17-0.084-0.255C35.653,243.205,34.415,242.185,33.178,241.164"/>
	<path clip-path="url(#SVGID_2_)" fill="#229CCB" d="M101.202,206.181c-46.121-36.625-85.656-20.289-85.656-20.289
		c19.116,32.4,50.882,56.269,89.366,62.835c48.538,8.283,95.057-13.086,122.997-51.464c0.039-0.067,0.074-0.125,0.074-0.125
		C190.576,236.573,147.321,242.807,101.202,206.181"/>
	<path clip-path="url(#SVGID_2_)" fill="#B6E3F5" d="M237.351,177.78c-6.28-32.17,13.451-61.653,45.979-79.664
		c-20.282,6.631-40.576,13.242-60.634,20.224c-22.785,7.934-45.359,16.262-67.463,25.179c-19.294,7.784-38.037,16.36-56.539,25.142
		c-7.43,3.528-13.945,8.268-20.173,12.964c-4.747,3.579-4.082,6.583,0.74,10.07c6.633,4.799,15.013,7.51,23.333,10.167
		c27.236,8.699,55.789,14.443,84.333,20.187c6.859,1.38,13.726,2.736,20.589,4.102c11.814-3.11,23.412-6.82,35.491-9.199
		c6.202-1.221,12.44-2.138,18.706-2.739C249.188,204.424,240.217,192.468,237.351,177.78"/>
	<path clip-path="url(#SVGID_2_)" fill="#FFFFFF" d="M300.648,97.132c-27.754,0-117.52,55.579-117.52,66.985
		c0,12.203,92.802,35.811,117.52,35.811V97.132z"/>
	<path clip-path="url(#SVGID_2_)" fill="#FFFFFF" d="M301.881,83.419c-29.95-1.362-128.01,22.58-128.01,22.58
		s99.498,19.709,126.171,20.921L301.881,83.419z"/>
	<path clip-path="url(#SVGID_2_)" fill="none" stroke="#FFFFFF" stroke-width="5.635" stroke-miterlimit="10" d="M-56.563,77.333
		c33.167,0,140.438,52.079,140.438,62.766c0,11.434-110.899,33.556-140.438,33.556V77.333z"/>
	<path clip-path="url(#SVGID_2_)" fill="#FFFFFF" d="M117.656,102.947c-8.372-0.771-16.751-1.462-25.13-2.176
		c-6.604-0.562-13.207-1.132-19.815-1.657c-7.955-0.634-15.916-1.232-23.875-1.831c-7.346-0.552-14.696-1.076-22.043-1.628
		c-3.73-0.28-7.458-0.598-11.187-0.9c-1.229,2.328-2.598,4.599-3.663,6.99c-1.379,3.094-2.618,6.221-3.715,9.377
		c11.232-0.122,22.797-0.234,33.166,3.7c0.011,0.005,0.024,0.01,0.035,0.015c3.786-0.401,7.574-0.781,11.356-1.211
		c8.301-0.944,16.6-1.925,24.9-2.883c3.786-0.437,7.577-0.828,11.359-1.285c7.317-0.885,14.629-1.81,21.944-2.704
		c6.525-0.799,13.052-1.582,19.578-2.373C126.263,103.9,121.968,103.346,117.656,102.947"/>
	<path clip-path="url(#SVGID_2_)" fill="#D9DBDD" d="M-34.083,50.592c0,0,36.143-6.453,80.33,8.637
		c44.187,15.09,87.363,11.714,122.484-4.248c0,0-31.359,20.094-96.24,20.419C6.457,75.73-35.03,54.433-34.083,50.592"/>
	<path clip-path="url(#SVGID_2_)" fill="#D9DBDD" d="M268.254,56.615c0,0-23.726,1.134-51.427-10.642s-54.611-12.371-78.058-6.291
		c0,0,20.154-10.877,62.065-6.08C235.201,37.537,269.084,54.481,268.254,56.615"/>
	<path clip-path="url(#SVGID_2_)" fill="#D9DBDD" d="M163.047-2.311c0,0-36.141-6.452-80.329,8.637
		C38.531,21.417-4.645,18.041-39.766,2.079c0,0,31.359,20.094,96.24,20.419C122.507,22.828,163.995,1.531,163.047-2.311"/>
	<path clip-path="url(#SVGID_2_)" fill="#D9DBDD" d="M16.136,88.335c3.713,0.523,7.422,1.065,11.136,1.566
		c7.315,0.987,14.635,1.941,21.95,2.927c7.925,1.069,15.851,2.137,23.77,3.245c6.578,0.919,13.149,1.886,19.722,2.845
		c8.338,1.216,16.68,2.407,25.009,3.688c4.29,0.66,8.555,1.49,12.832,2.243c-6.553,0.529-13.107,1.049-19.66,1.588
		c-7.348,0.604-14.693,1.238-22.042,1.83c-3.797,0.306-7.602,0.539-11.403,0.822c-8.333,0.621-16.665,1.267-25,1.873
		c-4.231,0.307-8.467,0.543-12.701,0.822c-2.201,0.146-4.399,0.316-6.726,0.794c1.695,0.751,3.395,1.494,5.085,2.255
		c12.651,5.701,25.325,11.363,37.069,18.965c1.814,1.175,3.559,2.552,5.079,4.106c1.616,1.651,1.438,3.01-0.522,4.192
		c-2.223,1.339-4.525,2.729-6.97,3.451c-9.98,2.952-19.961,5.964-30.072,8.371c-10.521,2.505-21.188,4.369-31.803,6.449
		c-3.435,0.674-6.906,1.152-10.362,1.719c-0.127-4.864-0.389-9.729-0.339-14.592c0.035-3.56,0.384-7.128,0.75-10.675
		c1.48-14.33,5.303-27.988,11.232-41.006C13.339,93.246,14.806,90.824,16.136,88.335"/>
	<polyline clip-path="url(#SVGID_2_)" fill="#D9DBDD" points="15.979,88.491 -18.14,82.415 -18.14,132.9 38.137,151.121 	"/>
	<path clip-path="url(#SVGID_2_)" fill="#D9DBDD" d="M3.622,92.432c-4.075,22.529-1.102,46.712,5.107,69.069
		c37.65-7.32,76.1-17.582,76.1-24.202C84.829,130.744,43.082,108.351,3.622,92.432"/>
	<path clip-path="url(#SVGID_2_)" fill="#D9DBDD" d="M307.2,78.767c-28.646,0-121.298,67.586-121.298,81.455
		c0,14.838,95.786,43.546,121.298,43.546V78.767z"/>
	<path clip-path="url(#SVGID_2_)" fill="#D9DBDD" d="M301.599,73.641c-31.079,0-131.597,31.608-131.597,31.608
		s103.917,16.896,131.597,16.896V73.641z"/>
	<path clip-path="url(#SVGID_2_)" fill="#FFFFFF" d="M173.597,115.463c-0.122,1.838-14.522,2.309-32.164,1.05
		c-17.641-1.257-31.844-3.768-31.722-5.606c0.122-1.838,14.522-2.309,32.164-1.051C159.516,111.114,173.719,113.625,173.597,115.463
		"/>
	<path clip-path="url(#SVGID_2_)" fill="#B6E3F5" d="M177.44,112.478c0,1.722-16.431,3.119-36.698,3.119
		c-20.268,0-36.698-1.396-36.698-3.119c0-1.723,16.43-3.118,36.698-3.118C161.01,109.36,177.44,110.755,177.44,112.478"/>
	<path clip-path="url(#SVGID_2_)" fill="#259CCB" d="M167.119,85.333c-0.594-0.64-2.687-2.717-4.903-2.368
		c-2.852,0.447-3.616,8.942-3.827,11.941c-0.217,3.079-0.311,10.242-0.822,12.172c-0.169,0.638-0.487,1.107-1.114,1.196
		c0.242,0.131,0.481,0.268,0.717,0.418c2.331,1.482,4.261,3.533,6.485,5.172c0.183-4.925-0.463-9.242-0.463-9.242
		c-1.7-9.475-1.319-15.207,0.098-15.876c1.299-0.612,1.308-0.184,3.359-0.347C168.395,88.258,167.904,86.178,167.119,85.333"/>
	<path clip-path="url(#SVGID_2_)" fill="#22638B" d="M122.116,110c0.162-0.01,0.32-0.025,0.488-0.025h1.974
		c-1.469-0.606-3.066-1.623-4.832-3.189c-0.094-0.084-0.553-0.168-0.197,0.24C119.647,107.139,120.857,108.54,122.116,110"/>
	<path clip-path="url(#SVGID_2_)" fill="#22638B" d="M163.734,85.466c0,0,0.187-0.915,1.125-0.515"/>
	<path clip-path="url(#SVGID_2_)" fill="#22638B" d="M164.685,86.82c0.243,0.954,1.683,1.621,2.385,1.564"/>
	<path clip-path="url(#SVGID_2_)" fill="#22638B" d="M162.622,89.622c-0.099,0.122-0.192,0.247-0.282,0.376
		c-0.372,0.827-0.633,1.696-0.752,2.574c-0.453,3.349,0.106,7.028,1.024,10.241c0.175,0.615,0.371,1.222,0.583,1.821
		c0-0.007-0.002-0.013-0.002-0.013C161.805,96.889,161.804,91.651,162.622,89.622"/>
	<path clip-path="url(#SVGID_2_)" fill="#22638B" d="M167.119,85.333c-0.594-0.64-2.687-2.717-4.903-2.368
		c-2.369,0.373-3.297,6.294-3.665,10.008c2.925,6.145,4.724,13.357,4.333,20.298c0.254,0.203,0.51,0.401,0.771,0.593
		c0.183-4.925-0.463-9.242-0.463-9.242c-1.7-9.475-1.319-15.207,0.098-15.876c1.299-0.612,1.308-0.184,3.359-0.347
		C168.395,88.258,167.904,86.178,167.119,85.333"/>
	<path clip-path="url(#SVGID_2_)" fill="#259CCB" d="M151.854,106.716c0,0,3.262,2.305,4.6,1.557
		c0.212-0.119,0.518-0.073,0.882,0.084c1.94,0.843,5.549,4.914,5.549,4.914s-9.266-5.897-14.697-6.555
		C142.755,106.057,151.854,106.716,151.854,106.716"/>
	<path clip-path="url(#SVGID_2_)" fill="#22638B" d="M151.403,106.396c-4.214-3.069-10.597-1.23-15.653,1.85
		c-0.751,0.457-1.501,0.971-2.267,1.484h2.345c0.28,0,0.553,0.023,0.821,0.059c3.167-1.448,6.437-2.622,9.901-3.002
		c1.969-0.217,3.96-0.157,5.857,0.303C152.097,106.886,151.762,106.657,151.403,106.396"/>
	<path clip-path="url(#SVGID_2_)" fill="#259CCB" d="M152.241,106.995c0,0,4.013,1.66,4.723,0.613
		c0.71-1.049,1.124-6.163,1.124-6.163s2.931,7.951,1.042,7.913c-1.889-0.037-5.524-1.001-5.524-1.001l-1.6-1.054"/>
	<path clip-path="url(#SVGID_2_)" fill="#22638B" d="M16.872,187.213c18.874,32.042,50.24,55.644,88.247,62.129
		c48.913,8.347,95.73-13.866,123.126-53.305c-0.48-0.329-0.93-0.668-1.483-0.968c0,0-36.518-19.046-84.479,13.282
		C94.809,240.348,35.758,218.056,16.872,187.213"/>
</g>
</svg>
