<?xml version="1.0" encoding="utf-8"?>
<!-- Generator: Adobe Illustrator 16.0.4, SVG Export Plug-In . SVG Version: 6.00 Build 0)  -->
<!DOCTYPE svg PUBLIC "-//W3C//DTD SVG 1.1//EN" "http://www.w3.org/Graphics/SVG/1.1/DTD/svg11.dtd">
<svg version="1.1" id="Layer_1" xmlns="http://www.w3.org/2000/svg" xmlns:xlink="http://www.w3.org/1999/xlink" x="0px" y="0px"
	 width="250px" height="250px" viewBox="0 0 250 250" enable-background="new 0 0 250 250" xml:space="preserve">
<g>
	<g>
		<defs>
			<path id="SVGID_1_" d="M3.537,126.452C3.537,194.686,57.792,250,124.721,250c66.928,0,121.184-55.314,121.184-123.548
				c0-68.232-54.256-123.547-121.184-123.547C57.792,2.905,3.537,58.22,3.537,126.452"/>
		</defs>
		<clipPath id="SVGID_2_">
			<use xlink:href="#SVGID_1_"  overflow="visible"/>
		</clipPath>
		<path clip-path="url(#SVGID_2_)" fill="#B6E3F5" d="M250.743,141.424c-19.379,3.488-39.156-14.568-63.67-19.72
			c-13.27-2.788-40.88,6.019-51.574,6.384c-22.293,0.76-63.743-7.356-80.552-9.85c-0.034-0.004-0.071-0.007-0.104-0.012
			c-7.893,1.182-15.637,3.152-23.339,5.419c-7.767,2.286-15.43,4.535-23.129,6.216c-8.713,3.333-15.728,6.346-18.12,7.405
			c11.602,65.614,66.044,115.278,131.464,115.278c63.679,0,116.947-47.058,130.438-110.075
			C251.686,142.121,251.217,141.771,250.743,141.424"/>
		<path clip-path="url(#SVGID_2_)" fill="#D9DBDD" d="M242.787,135.859c-18.607-3.879-42.089-22.771-57.29-20.274
			c2.576-0.265,12.143-0.055,30.875,12.976c4.876,3.392,16.964,8.976,29.134,9.151C244.604,137.088,243.699,136.468,242.787,135.859
			"/>
		<path clip-path="url(#SVGID_2_)" fill="#FFFFFF" d="M74.539,130.814c0,0-17.767-9.485-52.449,3.246
			c-16.703,6.132-28.722,8.478-40.997-1.836c0,0,4.361,9.589,28.024,7.222C25.328,137.826,57.091,124.203,74.539,130.814"/>
	</g>
	<path fill="#2F9BC6" d="M228.469,166.965c1.939-28.27-1.971-54.939-1.971-54.939c-8.612-48.925-6.68-78.52,0.496-81.973
		c6.574-3.162,6.621-0.952,17.009-1.798c8.843-0.72,6.355-11.464,2.379-15.825c-3.009-3.3-13.605-14.026-24.83-12.229
		c-14.445,2.314-18.312,46.173-19.383,61.658c-1.102,15.897-1.575,52.881-4.164,62.846c-1.926,7.419-7.644,10.433-26.434-3.521
		c-21.338-15.843-53.667-6.346-79.277,9.551c-23.821,14.788-47.418,41.687-90.616,2.575c-0.477-0.432-2.808-0.872-1.005,1.244
		c1.038,1.219,26.39,31.152,27.786,32.889c27.923,34.756,69.284,55.091,103.724,55.008
		C164.414,222.375,196.24,167.042,228.469,166.965"/>
	<path fill="none" stroke="#229CCB" stroke-width="0.743" stroke-miterlimit="10" d="M228.469,166.965
		c1.939-28.27-1.971-54.939-1.971-54.939c-8.612-48.925-6.68-78.52,0.496-81.973c6.574-3.162,6.621-0.952,17.009-1.798
		c8.843-0.72,6.355-11.464,2.379-15.825c-3.009-3.3-13.605-14.026-24.83-12.229c-14.445,2.314-18.312,46.173-19.383,61.658
		c-1.102,15.897-1.575,52.881-4.164,62.846c-1.926,7.419-7.644,10.433-26.434-3.521c-21.338-15.843-53.667-6.346-79.277,9.551
		c-23.821,14.788-47.418,41.687-90.616,2.575c-0.477-0.432-2.808-0.872-1.005,1.244c1.038,1.219,26.39,31.152,27.786,32.889
		c27.923,34.756,69.284,55.091,103.724,55.008C164.414,222.375,196.24,167.042,228.469,166.965z"/>
	<path fill="#22638B" d="M229.238,13.116c0,0-0.086-0.141-0.154-0.399c-0.073-0.258-0.125-0.629-0.087-1.078
		c0.023-0.222,0.067-0.463,0.154-0.709c0.071-0.251,0.208-0.497,0.354-0.751c0.173-0.235,0.352-0.494,0.604-0.688
		c0.231-0.223,0.517-0.376,0.807-0.521c0.292-0.132,0.606-0.196,0.909-0.251c0.299-0.015,0.6-0.015,0.871,0.03
		c0.268,0.06,0.519,0.142,0.747,0.228c0.216,0.115,0.409,0.239,0.58,0.362c0.346,0.236,0.552,0.558,0.702,0.762
		c0.146,0.212,0.209,0.358,0.209,0.358s-0.152,0.069-0.382,0.144c-0.231,0.093-0.537,0.129-0.866,0.253
		c-0.163,0.05-0.33,0.093-0.496,0.128c-0.161,0.061-0.319,0.116-0.478,0.15c-0.152,0.05-0.287,0.125-0.433,0.15
		c-0.123,0.082-0.265,0.097-0.381,0.167c-0.252,0.1-0.49,0.233-0.77,0.375c-0.124,0.093-0.281,0.155-0.412,0.257
		c-0.145,0.088-0.284,0.184-0.42,0.281c-0.278,0.187-0.538,0.377-0.732,0.518C229.356,13.03,229.238,13.116,229.238,13.116"/>
	<path fill="#22638B" d="M234.057,20.109c0,0,0.127,0.218,0.331,0.607c0.088,0.204,0.248,0.413,0.407,0.65
		c0.149,0.242,0.35,0.495,0.582,0.765c0.21,0.283,0.492,0.543,0.766,0.835c0.268,0.293,0.615,0.543,0.924,0.845
		c0.348,0.263,0.688,0.554,1.066,0.809c0.365,0.275,0.753,0.527,1.151,0.762c0.383,0.259,0.795,0.474,1.189,0.7
		c0.411,0.192,0.794,0.438,1.194,0.603c0.394,0.188,0.776,0.358,1.145,0.512c0.367,0.16,0.725,0.271,1.049,0.408
		c0.66,0.218,1.223,0.376,1.628,0.466c0.404,0.068,0.647,0.119,0.647,0.119s-0.229,0.06-0.653,0.141
		c-0.422,0.055-1.039,0.084-1.771,0.007c-0.359-0.059-0.761-0.095-1.166-0.208c-0.41-0.098-0.842-0.205-1.272-0.373
		c-0.438-0.146-0.877-0.334-1.317-0.54c-0.431-0.228-0.878-0.442-1.298-0.71c-0.42-0.268-0.832-0.553-1.218-0.862
		c-0.404-0.282-0.737-0.658-1.088-0.971c-0.323-0.355-0.639-0.688-0.892-1.056c-0.259-0.358-0.496-0.7-0.662-1.057
		c-0.089-0.171-0.174-0.337-0.254-0.493c-0.062-0.172-0.12-0.333-0.174-0.485c-0.109-0.303-0.192-0.561-0.214-0.782
		C234.085,20.363,234.057,20.109,234.057,20.109"/>
	<path fill="#22638B" d="M73.543,150.355c11.184-2.418,21.883-6.954,32.359-11.649c13.312-5.967,26.401-10.825,40.837-12.835
		c9.6-1.336,19.251-1.716,28.911-1.787c-1.288-0.875-2.64-1.831-4.078-2.899c-21.338-15.842-53.667-6.346-79.277,9.551
		c-10.952,6.8-21.859,16.155-34.644,20.482C62.904,152.216,68.791,151.383,73.543,150.355"/>
	<path fill="#22638B" d="M223.603,34.575c-0.496,0.628-0.971,1.276-1.422,1.945c-1.882,4.268-3.21,8.756-3.812,13.284
		c-2.297,17.294,0.535,36.293,5.181,52.883c0.891,3.175,1.879,6.307,2.958,9.401c-0.005-0.034-0.009-0.062-0.009-0.062
		C219.47,72.096,219.466,45.051,223.603,34.575"/>
	<g>
		<defs>
			<path id="SVGID_3_" d="M3.537,126.452C3.537,194.686,57.792,250,124.721,250c66.928,0,121.184-55.314,121.184-123.548
				c0-68.232-54.256-123.547-121.184-123.547C57.792,2.905,3.537,58.22,3.537,126.452"/>
		</defs>
		<clipPath id="SVGID_4_">
			<use xlink:href="#SVGID_3_"  overflow="visible"/>
		</clipPath>
		<path clip-path="url(#SVGID_4_)" fill="#B6E3F5" d="M184.226,164.021c-8.521-3.936-20.591-6.937-26.634-7.354
			c-9.718-0.67-18.041,0.182-28.903,4.093c-11.531,4.151-23.305,8.882-34.468,9.95c-21.68,2.073-36.132-8.293-50.585-10.021
			C30.139,159.074,7,167.405,3.999,168.514c20.723,47.751,66.499,80.944,119.657,80.944c52.64,0,94.367-30.651,117.154-75.602
			C222.687,186.302,203.349,172.854,184.226,164.021"/>
		<path clip-path="url(#SVGID_4_)" fill="#229CCB" d="M101.649,206.53c-44.712-35.311-83.041-19.561-83.041-19.561
			c18.533,31.238,49.329,54.25,86.638,60.581c47.056,7.986,92.155-12.616,119.242-49.617c0.038-0.064,0.072-0.12,0.072-0.12
			C188.295,235.831,146.36,241.841,101.649,206.53"/>
		<path clip-path="url(#SVGID_4_)" fill="#22638B" d="M19.894,188.242c18.333,30.899,48.795,53.662,85.701,59.925
			c47.494,8.059,92.95-13.345,119.542-51.362c-0.467-0.316-0.902-0.644-1.441-0.933c0,0-35.465-18.374-82.026,12.782
			C95.582,239.493,38.239,217.985,19.894,188.242"/>
		<path clip-path="url(#SVGID_4_)" fill="#FFFFFF" d="M25.737,164.869c0,0,16.541-3.01,36.763,4.03
			c20.224,7.04,39.983,5.465,56.058-1.982c0,0-14.352,9.375-44.046,9.527C44.291,176.599,25.304,166.662,25.737,164.869"/>
		<path clip-path="url(#SVGID_4_)" fill="#FFFFFF" d="M190.045,170.879c0,0-10.858,0.53-23.536-4.965
			c-12.679-5.494-24.994-5.772-35.726-2.935c0,0,9.224-5.075,28.406-2.837C174.917,161.977,190.424,169.883,190.045,170.879"/>
	</g>
	<path fill="#D9DBDD" d="M200.803,23.192c0,0-23.604-2.057-52.54,3.241c-28.936,5.298-57.147,4.313-80.053-0.981
		c0,0,20.432,6.715,62.842,6.579C174.218,31.894,201.41,24.496,200.803,23.192"/>
	<path fill="#D9DBDD" d="M21.351,46.437c0,0,28.915-3.673,64.319,5.251c35.405,8.923,69.957,7.065,98.034-2.163
		c0,0-25.056,11.649-76.988,11.672C53.859,61.219,20.602,48.678,21.351,46.437"/>
</g>
</svg>
